<?xml version="1.0" standalone="no"?>
<!DOCTYPE svg PUBLIC "-//W3C//DTD SVG 20010904//EN"
 "http://www.w3.org/TR/2001/REC-SVG-20010904/DTD/svg10.dtd">
<svg version="1.0" xmlns="http://www.w3.org/2000/svg"
 width="300.000000pt" height="271.000000pt" viewBox="0 0 300.000000 271.000000"
 preserveAspectRatio="xMidYMid meet">

<g transform="translate(0.000000,271.000000) scale(0.100000,-0.100000)"
fill="#000000" stroke="none">
<path d="M1507 2623 c18 -2 50 -2 70 0 21 2 7 4 -32 4 -38 0 -55 -2 -38 -4z"/>
<path d="M1393 2613 c9 -2 25 -2 35 0 9 3 1 5 -18 5 -19 0 -27 -2 -17 -5z"/>
<path d="M1653 2613 c9 -2 25 -2 35 0 9 3 1 5 -18 5 -19 0 -27 -2 -17 -5z"/>
<path d="M1560 2577 c0 -13 -5 -28 -12 -35 -18 -18 8 -41 43 -39 23 2 29 7 29
24 0 16 -4 21 -15 17 -12 -5 -14 0 -9 25 6 27 4 31 -15 31 -15 0 -21 -6 -21
-23z m30 3 c0 -5 -4 -10 -10 -10 -5 0 -10 5 -10 10 0 6 5 10 10 10 6 0 10 -4
10 -10z m-9 -53 c-1 -12 -15 -9 -19 4 -3 6 1 10 8 8 6 -3 11 -8 11 -12z"/>
<path d="M1798 2593 c7 -3 16 -2 19 1 4 3 -2 6 -13 5 -11 0 -14 -3 -6 -6z"/>
<path d="M1228 2583 c7 -3 16 -2 19 1 4 3 -2 6 -13 5 -11 0 -14 -3 -6 -6z"/>
<path d="M1389 2574 c-4 -62 9 -93 32 -78 8 4 24 8 38 8 31 1 40 26 12 33 -12
3 -21 10 -21 15 0 6 7 8 15 4 8 -3 15 -1 15 5 0 15 -43 7 -48 -9 -2 -7 5 -16
17 -19 31 -8 25 -20 -10 -20 -26 0 -30 4 -26 22 2 12 -2 31 -10 41 -12 17 -13
17 -14 -2z"/>
<path d="M1689 2574 c-11 -14 -10 -18 6 -30 10 -8 22 -14 27 -14 4 0 8 -7 8
-15 0 -21 -27 -19 -40 3 -10 15 -10 15 -8 -3 4 -28 63 -29 63 -1 0 16 -9 25
-44 43 -1 1 0 7 4 13 5 8 13 6 26 -6 16 -15 19 -15 19 -2 0 14 -19 28 -40 28
-4 0 -14 -7 -21 -16z"/>
<path d="M1845 2580 c11 -5 27 -9 35 -9 9 0 8 4 -5 9 -11 5 -27 9 -35 9 -9 0
-8 -4 5 -9z"/>
<path d="M1920 2562 c8 -5 26 -13 40 -16 17 -5 20 -4 10 2 -8 5 -26 13 -40 16
-17 5 -20 4 -10 -2z"/>
<path d="M1105 2550 c-13 -6 -15 -9 -5 -9 8 0 22 4 30 9 18 12 2 12 -25 0z"/>
<path d="M1247 2553 c-4 -3 -6 -27 -6 -52 1 -25 3 -39 6 -30 5 21 38 30 52 16
22 -22 19 1 -5 36 -25 37 -35 43 -47 30z m26 -28 c4 -8 2 -17 -3 -20 -6 -4
-10 3 -10 14 0 25 6 27 13 6z"/>
<path d="M1337 2553 c-11 -3 -16 -10 -13 -20 3 -8 6 -24 6 -34 0 -12 4 -17 11
-14 6 4 8 13 5 21 -3 7 1 20 9 28 25 25 21 29 -18 19z"/>
<path d="M1776 2534 c-9 -8 -16 -19 -16 -24 0 -16 31 -39 45 -34 23 9 18 23
-6 17 -17 -5 -20 -2 -17 13 3 13 11 18 26 17 27 -3 28 3 3 17 -15 7 -23 6 -35
-6z"/>
<path d="M2000 2530 c8 -5 20 -10 25 -10 6 0 3 5 -5 10 -8 5 -19 10 -25 10 -5
0 -3 -5 5 -10z"/>
<path d="M1030 2520 c-8 -5 -10 -10 -5 -10 6 0 17 5 25 10 8 5 11 10 5 10 -5
0 -17 -5 -25 -10z"/>
<path d="M1147 2509 c-3 -10 -1 -19 4 -19 5 0 9 -9 9 -19 0 -22 15 -35 30 -26
6 4 4 12 -5 22 -9 9 -14 21 -12 27 3 6 -1 16 -8 23 -10 9 -14 8 -18 -8z"/>
<path d="M1850 2518 c0 -7 -3 -24 -6 -38 -5 -17 -3 -22 3 -15 15 15 25 65 13
65 -5 0 -10 -6 -10 -12z"/>
<path d="M1887 2504 c-4 -4 -7 -18 -7 -30 0 -27 36 -43 54 -24 8 9 6 11 -11 6
-22 -7 -47 14 -25 22 7 2 9 8 6 14 -4 6 -1 8 7 6 8 -3 13 -11 12 -17 -2 -6 2
-11 8 -11 6 0 9 8 7 18 -3 17 -38 29 -51 16z"/>
<path d="M2061 2506 c10 -9 89 -46 89 -41 0 5 -75 45 -86 45 -4 0 -5 -2 -3 -4z"/>
<path d="M913 2460 c-29 -17 -53 -33 -53 -36 0 -5 88 43 105 58 17 15 0 8 -52
-22z"/>
<path d="M1095 2480 c-4 -6 -11 -7 -17 -4 -14 9 -1 -47 14 -61 7 -7 8 0 3 23
-5 24 -3 32 8 32 8 0 18 -10 22 -22 3 -13 9 -18 11 -11 6 14 -13 53 -26 53 -5
0 -12 -5 -15 -10z"/>
<path d="M1960 2469 c-6 -11 -10 -25 -7 -32 2 -7 9 -2 16 11 18 34 35 28 27
-10 -5 -31 -5 -32 9 -13 20 26 16 46 -12 56 -18 6 -25 4 -33 -12z"/>
<path d="M1483 2463 c15 -2 27 -10 27 -16 1 -7 1 -100 2 -207 l2 -195 5 170
c4 108 8 153 12 125 4 -29 6 -15 4 37 l-3 82 47 4 c25 2 8 4 -39 4 -47 0 -73
-2 -57 -4z"/>
<path d="M1393 2453 c9 -2 25 -2 35 0 9 3 1 5 -18 5 -19 0 -27 -2 -17 -5z"/>
<path d="M1663 2453 c9 -2 23 -2 30 0 6 3 -1 5 -18 5 -16 0 -22 -2 -12 -5z"/>
<path d="M2160 2456 c0 -3 9 -10 20 -16 11 -6 20 -8 20 -6 0 3 -9 10 -20 16
-11 6 -20 8 -20 6z"/>
<path d="M1004 2435 c-8 -20 2 -44 21 -51 17 -7 45 12 44 30 0 7 -2 6 -6 -1
-4 -12 -33 -19 -33 -9 0 2 -3 11 -6 20 -3 9 -1 16 6 16 6 0 8 -5 4 -11 -4 -7
-1 -10 6 -7 8 2 16 10 18 16 6 18 -48 15 -54 -3z"/>
<path d="M1748 2443 c7 -3 16 -2 19 1 4 3 -2 6 -13 5 -11 0 -14 -3 -6 -6z"/>
<path d="M2037 2444 c-13 -13 -7 -52 9 -58 23 -9 34 -7 34 4 0 6 -8 10 -17 8
-23 -4 -30 30 -8 38 10 4 21 1 27 -7 8 -12 9 -11 5 1 -4 16 -38 25 -50 14z"/>
<path d="M1278 2433 c7 -3 16 -2 19 1 4 3 -2 6 -13 5 -11 0 -14 -3 -6 -6z"/>
<path d="M1788 2433 c7 -3 16 -2 19 1 4 3 -2 6 -13 5 -11 0 -14 -3 -6 -6z"/>
<path d="M2210 2427 c0 -2 21 -19 48 -37 78 -55 175 -145 230 -212 89 -109 94
-114 61 -63 -41 63 -186 209 -259 262 -63 45 -80 56 -80 50z"/>
<path d="M796 2385 c-62 -48 -59 -54 4 -9 45 32 57 44 46 44 -2 0 -24 -16 -50
-35z"/>
<path d="M935 2404 c-11 -8 -26 -19 -33 -23 -11 -6 -11 -13 -1 -34 13 -28 36
-39 25 -12 -3 8 -9 22 -12 30 -9 22 14 18 28 -5 18 -28 30 -25 16 5 -16 35 -3
43 21 14 24 -28 28 -13 5 19 -18 26 -22 26 -49 6z"/>
<path d="M1866 2405 c3 -8 1 -29 -5 -47 -6 -20 -7 -45 -3 -63 8 -27 10 -24 21
38 12 62 15 67 35 62 18 -5 17 -4 -4 9 -32 20 -51 20 -44 1z m1 -87 c-3 -8 -6
-5 -6 6 -1 11 2 17 5 13 3 -3 4 -12 1 -19z"/>
<path d="M1160 2400 c-13 -8 -12 -10 3 -10 9 0 17 -2 17 -5 0 -6 149 -634 157
-660 5 -18 4 -19 -12 -5 -17 14 -18 13 -12 -3 5 -13 0 -20 -16 -26 -18 -7 -24
-4 -35 18 -11 23 -12 23 -8 4 2 -13 3 -23 1 -23 -2 0 -17 23 -35 50 -18 28
-34 50 -37 50 -3 0 3 -12 12 -27 10 -14 26 -41 37 -59 l20 -34 -27 -12 c-32
-15 -13 -45 -178 275 -145 280 -146 284 -126 272 10 -7 8 -1 -4 18 -10 15 -15
32 -11 38 16 27 -37 -15 -116 -91 l-85 -82 79 71 c44 39 85 71 90 71 12 0 312
-587 305 -595 -3 -2 -51 45 -107 105 -57 60 -106 109 -110 109 -18 -3 -26 2
-16 9 6 4 -9 26 -39 57 -28 28 -45 43 -40 35 49 -74 176 -250 180 -250 2 0
-16 30 -42 66 -25 37 -44 68 -42 71 3 2 50 -44 105 -104 77 -82 98 -110 90
-120 -17 -20 -31 -16 -61 19 -24 28 -26 29 -12 6 10 -16 14 -28 10 -28 -4 0
-39 26 -78 58 -40 32 -86 69 -103 83 -165 129 -274 222 -274 232 0 7 13 28 30
47 16 19 29 39 30 44 0 5 -17 -13 -39 -40 -42 -53 -104 -154 -98 -160 2 -2 14
14 26 36 12 22 25 40 28 40 5 0 154 -143 348 -334 49 -48 81 -85 70 -82 -19 6
-19 6 -1 -9 16 -12 17 -17 6 -30 -7 -8 -16 -15 -20 -15 -4 0 -41 25 -81 56
-41 30 -56 39 -34 20 22 -20 55 -46 72 -59 63 -43 32 -37 -68 14 -56 27 -103
49 -105 47 -2 -2 41 -26 96 -53 55 -27 100 -54 100 -60 0 -6 -6 -19 -12 -28
-12 -15 -36 -3 -248 123 -240 144 -275 168 -230 156 21 -6 22 -5 7 4 -12 8
-16 19 -12 33 5 19 4 19 -9 -3 -24 -40 -18 -53 37 -81 55 -27 388 -227 422
-253 l20 -15 -20 -1 c-15 0 -17 -2 -6 -9 20 -13 4 -54 -17 -46 -38 15 -45 15
-19 0 15 -8 27 -17 27 -19 0 -2 -12 -2 -27 0 -17 2 -20 1 -8 -2 30 -9 38 -20
30 -44 -8 -27 -8 -27 -273 52 -112 33 -205 58 -207 56 -3 -2 92 -33 210 -68
118 -35 215 -67 215 -71 0 -5 12 -12 26 -15 22 -6 25 -11 22 -35 -3 -16 -1
-29 2 -29 4 0 10 31 14 70 6 72 38 170 74 228 30 51 116 136 178 177 66 44
177 84 258 93 l59 7 -2 115 c-3 137 -11 160 -12 34 -1 -62 -4 -81 -9 -64 -6
16 -7 7 -3 -27 5 -52 5 -53 -21 -53 -16 0 -26 5 -26 15 0 9 -6 12 -15 9 -8 -4
-15 -12 -15 -20 0 -8 -6 -14 -14 -14 -8 0 -21 -2 -29 -5 -10 -5 -20 20 -40
102 -123 501 -127 523 -106 493 9 -13 10 -13 6 1 -3 10 -11 35 -18 58 -12 42
-22 48 -49 31z m-65 -806 c19 -14 19 -14 -2 -36 l-22 -22 -53 49 c-146 135
-388 370 -388 377 0 4 100 -74 223 -173 122 -100 231 -187 242 -195z"/>
<path d="M2107 2404 c-4 -4 -7 -17 -7 -30 0 -21 18 -35 43 -33 7 0 2 4 -10 9
-13 5 -23 14 -23 20 0 13 17 13 25 0 11 -18 26 -10 23 13 -3 22 -36 36 -51 21z
m43 -14 c0 -5 -4 -10 -9 -10 -6 0 -13 5 -16 10 -3 6 1 10 9 10 9 0 16 -4 16
-10z"/>
<path d="M1971 2376 c10 -9 129 -66 129 -61 0 5 -116 65 -126 65 -4 0 -5 -2
-3 -4z"/>
<path d="M1070 2360 c-9 -6 -10 -10 -3 -10 6 0 15 5 18 10 8 12 4 12 -15 0z"/>
<path d="M2215 2350 c-11 -13 -15 -27 -11 -44 7 -28 42 -44 59 -27 8 8 3 11
-17 11 -24 0 -27 3 -24 28 4 36 42 44 53 10 7 -21 8 -21 12 -4 3 12 -2 25 -13
33 -24 18 -38 16 -59 -7z"/>
<path d="M832 2335 c-10 -12 -9 -20 5 -41 9 -15 19 -21 21 -15 2 6 -1 18 -8
26 -22 26 0 38 26 14 26 -24 30 -20 14 12 -13 22 -40 24 -58 4z"/>
<path d="M1025 2340 c-3 -6 1 -7 9 -4 18 7 21 14 7 14 -6 0 -13 -4 -16 -10z"/>
<path d="M649 2253 c-46 -49 -93 -99 -104 -113 -23 -30 -17 -24 105 103 51 53
92 97 89 97 -2 0 -43 -39 -90 -87z"/>
<path d="M953 2299 c-35 -22 -46 -37 -15 -20 22 13 58 40 52 41 -3 0 -20 -10
-37 -21z"/>
<path d="M786 2295 c-19 -14 -19 -15 -1 -35 23 -25 39 -26 25 -1 -5 11 -7 27
-4 35 7 19 4 20 -20 1z"/>
<path d="M1836 2285 c-3 -9 -6 -22 -5 -28 0 -7 5 -1 10 12 5 13 8 26 5 28 -2
2 -6 -3 -10 -12z"/>
<path d="M1231 2285 c-1 -15 140 -437 145 -432 2 2 -30 102 -70 223 -41 120
-75 215 -75 209z"/>
<path d="M2148 2277 c12 -14 11 -22 -9 -53 -13 -21 -17 -34 -9 -29 18 11 24
25 -125 -287 -125 -261 -128 -266 -151 -256 -31 14 -30 20 7 84 17 30 28 54
26 54 -3 0 -17 -21 -32 -46 -21 -36 -30 -43 -37 -33 -7 10 -8 8 -5 -8 4 -17 1
-23 -11 -23 -28 0 -45 17 -38 36 5 17 4 17 -10 -1 l-16 -20 5 20 c3 11 8 40
11 65 5 43 5 42 -10 -12 -9 -33 -22 -58 -29 -58 -29 0 -45 13 -41 34 2 12 0
14 -3 6 -3 -8 -8 50 -11 130 l-6 145 -2 -147 -2 -148 -25 0 c-14 0 -25 5 -25
11 0 5 -4 7 -10 4 -6 -4 -10 6 -11 22 -2 81 -37 511 -38 468 0 -27 6 -142 14
-255 18 -252 18 -240 1 -240 -8 0 -18 -5 -22 -12 -5 -7 -2 -9 8 -6 33 13 179
-22 265 -64 185 -90 312 -279 313 -465 0 -28 5 -43 13 -43 16 -1 -42 -51 -123
-106 -42 -29 -68 -40 -74 -34 -13 13 -46 13 -46 1 0 -5 9 -7 20 -4 11 3 20 0
20 -6 0 -6 -2 -11 -4 -11 -2 0 -11 -3 -20 -6 -11 -4 -18 4 -25 28 -7 25 -9 27
-10 11 -2 -52 -78 -81 -132 -52 -15 7 -24 7 -35 -1 -13 -12 -32 -11 -109 5
-19 4 -43 0 -65 -10 -19 -9 -24 -13 -10 -9 14 4 43 6 65 5 43 -3 117 -3 138
-2 6 1 30 -2 52 -7 38 -8 39 -8 18 -20 -17 -10 -28 -10 -44 -2 -14 8 -29 8
-50 1 -22 -8 -43 -7 -74 1 -34 9 -55 9 -100 -2 -42 -10 -64 -11 -85 -3 -22 8
-39 7 -72 -3 -39 -13 -48 -13 -97 4 -68 23 -81 44 -20 31 23 -5 44 -8 46 -5 3
3 -12 8 -33 12 -22 3 -46 10 -54 15 -22 12 14 11 82 -2 47 -10 61 -9 93 6 29
15 38 16 45 5 6 -9 22 -11 61 -5 30 4 71 6 92 6 58 -2 126 -3 140 -2 6 0 32
-2 57 -5 60 -7 85 10 71 49 -6 15 -7 27 -1 27 5 0 10 10 12 22 3 24 -3 24 118
14 30 -3 44 -3 30 0 -14 2 -42 9 -64 15 l-38 10 5 117 c2 64 2 98 0 75 -3 -35
-8 -43 -24 -43 -11 0 -29 -5 -40 -10 -18 -10 -19 -7 -19 49 0 83 13 115 45
109 14 -3 25 -1 25 4 0 5 -12 8 -27 6 -46 -5 -55 -37 -48 -176 3 -68 6 -129 8
-135 1 -9 -40 -13 -158 -14 -88 -1 -176 -3 -195 -4 -19 0 -46 0 -60 0 -14 1
-43 -1 -64 -5 -22 -4 -62 -1 -92 6 -49 12 -54 16 -54 41 0 18 13 41 43 71 23
25 41 52 40 63 -2 33 -15 65 -25 65 -6 0 -8 6 -5 13 3 6 8 19 12 28 17 43
-116 48 -156 6 -22 -24 -26 -52 -5 -44 8 3 17 3 20 0 6 -6 -19 -33 -31 -33
-16 0 -31 -37 -26 -63 4 -21 10 -26 24 -22 13 5 17 2 14 -8 -6 -14 40 -42 63
-38 8 1 12 -11 12 -33 0 -34 -1 -35 -57 -46 -84 -18 -86 -21 -10 -15 40 3 67
2 67 -4 0 -5 -12 -12 -27 -14 l-28 -4 29 -2 c21 -1 27 -5 22 -17 -3 -9 -6 -19
-6 -24 0 -4 -14 -13 -31 -19 -25 -9 -35 -7 -57 8 -15 10 -46 30 -68 45 -23 15
-63 47 -88 72 -29 28 -54 43 -64 41 -15 -4 -15 -5 1 -6 14 -1 17 -12 17 -75
l0 -73 -31 -7 c-17 -3 -49 -6 -70 -6 -45 0 -49 -9 -16 -36 12 -10 16 -12 10
-4 -21 23 -15 30 21 30 18 0 48 3 65 6 31 6 31 7 31 70 0 35 2 64 5 64 3 0 30
-20 60 -44 30 -25 75 -57 101 -72 40 -23 44 -29 28 -34 -10 -4 -21 -4 -24 0
-3 4 -15 10 -27 14 -20 6 -29 -2 -68 -63 -25 -39 -48 -71 -51 -71 -3 0 -20 9
-37 21 -32 21 -32 21 2 -9 22 -19 30 -31 23 -36 -23 -14 -11 -32 33 -54 56
-27 60 -20 5 8 l-39 20 50 80 c28 44 55 83 60 85 5 3 46 -12 91 -34 148 -72
218 -86 413 -86 148 0 180 3 249 24 111 32 125 39 119 62 -4 14 0 19 13 19 11
0 30 3 44 6 20 4 18 1 -10 -15 -19 -11 -30 -20 -25 -20 6 -1 30 10 54 24 23
14 47 25 51 25 9 0 110 -154 110 -168 0 -5 -48 -32 -107 -61 -60 -29 -97 -49
-83 -45 28 7 178 81 197 96 9 7 10 16 3 28 -8 15 -4 23 23 41 47 34 137 112
137 120 0 4 -29 9 -65 11 -35 2 -66 6 -69 9 -3 2 -6 33 -7 67 -1 37 -8 67 -16
73 -20 17 -15 52 11 71 18 13 457 158 479 158 3 0 8 -33 10 -72 2 -46 3 -31 4
42 0 63 -2 105 -4 93 -2 -13 -10 -23 -16 -23 -7 0 -6 -4 3 -10 8 -5 12 -11 10
-13 -13 -12 -496 -157 -508 -152 -7 3 -12 15 -10 27 2 17 14 25 48 34 25 7 38
12 30 13 -8 1 -29 -3 -47 -8 -29 -8 -32 -7 -44 21 -10 24 -10 31 1 38 10 6 8
9 -6 12 -20 4 11 26 309 217 88 55 163 101 167 101 5 0 12 -9 15 -21 4 -11 9
-19 11 -16 2 2 -4 26 -13 52 -13 40 -18 45 -23 30 -4 -11 -4 -22 1 -25 4 -3
-67 -52 -159 -110 -91 -58 -202 -129 -246 -157 -73 -48 -82 -51 -93 -36 -15
19 -17 43 -5 43 5 0 17 7 28 16 18 14 18 15 -4 4 -13 -7 -26 -10 -28 -7 -5 5
200 182 279 241 21 16 36 31 33 33 -7 7 -116 -69 -111 -77 2 -4 -15 -22 -38
-41 -23 -18 -74 -62 -113 -96 -67 -58 -73 -61 -87 -45 -9 10 -15 25 -14 34 2
9 100 116 219 237 l216 222 22 -28 c24 -31 18 -17 -17 40 -21 33 -21 37 -6 37
10 1 29 10 42 20 22 19 23 21 6 46 -18 27 -32 28 -49 1 -8 -12 -7 -22 2 -37 7
-12 8 -20 2 -20 -6 0 -13 7 -16 15 -4 8 -10 15 -15 15 -4 0 -5 -7 -2 -17 5
-12 3 -14 -8 -8 -8 5 -5 -2 6 -14 l20 -23 -45 -41 c-25 -23 -72 -66 -105 -96
l-60 -53 60 48 c33 26 79 66 102 88 24 22 45 38 47 35 8 -7 -435 -450 -447
-446 -6 2 -15 11 -21 21 -9 14 -2 25 44 64 74 63 137 124 95 91 -17 -13 -54
-44 -83 -69 -28 -25 -55 -45 -59 -45 -5 0 -13 -3 -18 -7 -6 -3 -19 0 -29 8
-19 13 -19 14 0 36 l19 23 -22 -19 c-13 -11 -23 -16 -23 -12 0 4 29 69 64 144
149 317 226 472 235 472 5 0 56 -43 113 -96 l103 -96 -101 98 c-56 55 -116
108 -135 118 -28 16 -32 17 -21 3z m342 -191 c0 -20 -19 -31 -32 -18 -6 6 -7
15 -4 21 10 16 36 13 36 -3z m-1250 -847 c0 -6 -4 -7 -10 -4 -5 3 -10 11 -10
16 0 6 5 7 10 4 6 -3 10 -11 10 -16z m660 -49 l0 -70 -30 0 -30 0 0 64 c0 65
5 74 43 75 15 1 17 -9 17 -69z m250 -129 c0 -57 1 -59 31 -65 17 -3 47 -6 66
-6 19 0 33 -4 31 -9 -4 -12 -140 -121 -150 -121 -5 0 -29 32 -55 70 -39 59
-50 69 -67 64 -12 -4 -23 -9 -26 -13 -3 -3 -21 -7 -40 -9 -33 -2 -31 0 33 37
37 22 89 58 114 80 26 22 51 38 55 35 4 -3 8 -31 8 -63z m-525 27 c34 -9 53
-9 75 -1 20 8 32 8 36 1 4 -6 29 -8 60 -6 30 3 54 1 54 -3 0 -13 -47 -22 -83
-15 -17 4 -39 6 -47 5 -8 -1 -39 -1 -69 -2 -42 0 -49 -2 -32 -9 13 -4 46 -8
75 -7 120 3 177 -7 134 -24 -7 -3 -4 -6 7 -6 17 -1 17 -3 5 -11 -20 -13 -76
-13 -100 0 -14 7 -25 7 -39 -2 -15 -9 -32 -10 -73 -1 -42 9 -61 8 -93 -3 -49
-17 -87 -18 -102 -3 -9 9 -19 9 -42 -1 -29 -11 -75 -10 -148 5 -23 5 -32 14
-36 32 -4 24 -3 25 34 19 96 -15 118 -15 47 2 -88 20 -119 39 -43 27 47 -8 87
-9 160 -5 17 0 49 1 73 1 24 -1 51 3 60 9 22 12 33 12 87 -2z m-455 -108 c0
-5 -7 -7 -15 -4 -8 4 -15 8 -15 10 0 2 7 4 15 4 8 0 15 -4 15 -10z m-41 -16
c17 -4 31 -13 31 -20 0 -18 -8 -17 -50 6 -37 20 -32 24 19 14z"/>
<path d="M1380 1060 c-12 -9 -11 -10 7 -5 12 3 39 1 60 -5 31 -9 46 -8 78 5
27 10 31 13 10 8 -37 -8 -71 -8 -110 1 -17 4 -36 2 -45 -4z"/>
<path d="M2280 2270 c-9 -16 -8 -25 1 -36 27 -33 75 -2 52 35 -15 24 -40 25
-53 1z m40 -25 c-7 -8 -16 -15 -21 -15 -14 0 -11 38 4 43 20 7 31 -11 17 -28z"/>
<path d="M727 2253 c-13 -13 -7 -54 9 -60 19 -7 46 7 52 28 4 11 0 10 -14 -3
-17 -14 -21 -14 -33 -1 -7 8 -10 17 -6 21 4 4 10 1 12 -6 6 -15 23 -6 23 14 0
14 -31 20 -43 7z"/>
<path d="M1851 2244 c0 -11 3 -14 6 -6 3 7 2 16 -1 19 -3 4 -6 -2 -5 -13z"/>
<path d="M2355 2230 c-16 -16 -26 -33 -22 -36 6 -6 56 45 57 59 0 12 -5 9 -35
-23z"/>
<path d="M2377 2195 c-15 -19 -24 -35 -19 -35 10 0 62 53 62 63 0 16 -17 5
-43 -28z"/>
<path d="M1801 2030 c-23 -105 -41 -194 -38 -196 3 -3 8 10 12 28 4 18 22 102
41 187 19 85 33 158 32 163 -2 5 -23 -76 -47 -182z"/>
<path d="M696 2186 c6 -27 6 -28 -16 -16 -12 6 -24 9 -27 7 -5 -5 49 -37 63
-37 9 0 -5 53 -17 65 -7 7 -8 0 -3 -19z"/>
<path d="M1791 2139 c-12 -39 -21 -72 -19 -75 2 -2 14 28 27 67 12 39 21 72
19 75 -2 2 -14 -28 -27 -67z"/>
<path d="M942 2170 c96 -158 230 -370 234 -370 3 0 -5 17 -17 38 -127 205
-212 339 -221 347 -7 6 -5 -1 4 -15z"/>
<path d="M1422 2130 c-1 -30 5 -68 13 -85 18 -40 18 -11 1 75 l-14 65 0 -55z"/>
<path d="M2092 2148 c-17 -29 -158 -271 -169 -290 -2 -5 -2 -8 0 -8 3 0 40 60
82 133 43 72 86 147 97 165 11 17 17 32 15 32 -3 0 -14 -15 -25 -32z"/>
<path d="M2400 2165 c-29 -35 12 -72 44 -40 12 12 13 21 6 36 -13 23 -33 25
-50 4z m40 -15 c0 -5 -4 -10 -10 -10 -5 0 -10 5 -10 10 0 6 5 10 10 10 6 0 10
-4 10 -10z m-14 -27 c-7 -7 -26 7 -26 19 0 6 6 6 15 -2 9 -7 13 -15 11 -17z"/>
<path d="M1648 2150 c-4 -14 -9 -50 -12 -80 l-5 -55 15 35 c8 19 13 54 12 80
-3 36 -5 40 -10 20z"/>
<path d="M620 2135 c-19 -23 -8 -50 22 -53 34 -4 50 34 22 55 -23 17 -29 16
-44 -2z m40 -25 c0 -11 -4 -20 -9 -20 -13 0 -32 26 -24 33 13 14 33 6 33 -13z"/>
<path d="M502 2083 c-26 -38 -34 -53 -29 -53 2 0 16 18 31 40 29 45 28 56 -2
13z"/>
<path d="M546 2084 c-33 -32 -14 -84 31 -84 31 0 60 44 43 65 -10 12 -16 13
-26 4 -8 -6 -14 -16 -14 -21 0 -6 7 -5 15 2 12 10 15 10 15 -3 0 -26 -36 -40
-54 -21 -21 21 -20 31 4 46 11 7 20 16 20 20 0 13 -18 9 -34 -8z"/>
<path d="M1120 2088 c-1 -17 42 -118 51 -118 5 0 9 3 9 8 -1 10 -59 118 -60
110z"/>
<path d="M1906 2019 c-19 -40 -34 -74 -32 -77 2 -2 7 6 11 17 3 12 10 19 14
16 9 -5 55 105 47 112 -2 2 -20 -29 -40 -68z"/>
<path d="M2502 2041 c-17 -10 -12 -53 6 -57 7 -1 8 0 2 3 -5 2 -10 12 -10 20
0 14 3 13 21 -3 17 -15 22 -16 29 -4 10 16 -5 50 -23 50 -7 0 -18 -4 -25 -9z
m38 -21 c0 -5 -2 -10 -4 -10 -3 0 -8 5 -11 10 -3 6 -1 10 4 10 6 0 11 -4 11
-10z"/>
<path d="M2610 2010 c6 -11 13 -20 16 -20 2 0 0 9 -6 20 -6 11 -13 20 -16 20
-2 0 0 -9 6 -20z"/>
<path d="M1731 1949 c-12 -39 -21 -72 -19 -75 2 -2 14 28 27 67 12 39 21 72
19 75 -2 2 -14 -28 -27 -67z"/>
<path d="M1452 1990 c0 -14 2 -19 5 -12 2 6 2 18 0 25 -3 6 -5 1 -5 -13z"/>
<path d="M436 1973 c-6 -14 -5 -15 5 -6 7 7 10 15 7 18 -3 3 -9 -2 -12 -12z"/>
<path d="M1621 1954 c0 -11 3 -14 6 -6 3 7 2 16 -1 19 -3 4 -6 -2 -5 -13z"/>
<path d="M1190 1951 c0 -6 4 -13 10 -16 6 -3 7 1 4 9 -7 18 -14 21 -14 7z"/>
<path d="M1434 1870 c0 -52 1 -74 3 -47 2 26 2 68 0 95 -2 26 -3 4 -3 -48z"/>
<path d="M2135 1903 c-27 -32 -44 -54 -37 -50 17 11 15 -1 -6 -31 -10 -15 -22
-34 -27 -42 -18 -34 15 9 62 80 81 122 82 127 8 43z"/>
<path d="M2657 1925 c9 -19 18 -33 21 -31 4 5 -26 66 -33 66 -3 0 3 -16 12
-35z"/>
<path d="M415 1939 c-4 -6 -5 -12 -2 -15 2 -3 7 2 10 11 7 17 1 20 -8 4z"/>
<path d="M1462 1930 c0 -14 2 -19 5 -12 2 6 2 18 0 25 -3 6 -5 1 -5 -13z"/>
<path d="M1876 1905 c-3 -9 -6 -22 -5 -28 0 -7 5 -1 10 12 5 13 8 26 5 28 -2
2 -6 -3 -10 -12z"/>
<path d="M2500 1900 c6 -11 13 -20 16 -20 2 0 0 9 -6 20 -6 11 -13 20 -16 20
-2 0 0 -9 6 -20z"/>
<path d="M1186 1897 c3 -10 9 -15 12 -12 3 3 0 11 -7 18 -10 9 -11 8 -5 -6z"/>
<path d="M1612 1880 c0 -19 2 -27 5 -17 2 9 2 25 0 35 -3 9 -5 1 -5 -18z"/>
<path d="M1220 1891 c0 -6 4 -13 10 -16 6 -3 7 1 4 9 -7 18 -14 21 -14 7z"/>
<path d="M1472 1870 c0 -14 2 -19 5 -12 2 6 2 18 0 25 -3 6 -5 1 -5 -13z"/>
<path d="M376 1855 c-9 -26 -7 -32 5 -12 6 10 9 21 6 23 -2 3 -7 -2 -11 -11z"/>
<path d="M1200 1856 c0 -8 4 -17 9 -20 5 -4 7 3 4 14 -6 23 -13 26 -13 6z"/>
<path d="M1825 1859 c-4 -6 -5 -12 -2 -15 2 -3 7 2 10 11 7 17 1 20 -8 4z"/>
<path d="M1696 1845 c-3 -9 -6 -22 -5 -28 0 -7 5 -1 10 12 5 13 8 26 5 28 -2
2 -6 -3 -10 -12z"/>
<path d="M1856 1845 c-3 -9 -6 -22 -5 -28 0 -7 5 -1 10 12 5 13 8 26 5 28 -2
2 -6 -3 -10 -12z"/>
<path d="M2690 1855 c0 -5 5 -17 10 -25 5 -8 10 -10 10 -5 0 6 -5 17 -10 25
-5 8 -10 11 -10 5z"/>
<path d="M1900 1820 c-6 -11 -8 -20 -6 -20 3 0 10 9 16 20 6 11 8 20 6 20 -3
0 -10 -9 -16 -20z"/>
<path d="M1261 1825 c0 -5 6 -21 14 -35 8 -14 14 -20 14 -15 0 6 -6 21 -14 35
-8 14 -14 21 -14 15z"/>
<path d="M1602 1805 c0 -16 2 -22 5 -12 2 9 2 23 0 30 -3 6 -5 -1 -5 -18z"/>
<path d="M1805 1819 c-4 -6 -5 -12 -2 -15 2 -3 7 2 10 11 7 17 1 20 -8 4z"/>
<path d="M2010 1760 c-34 -38 -60 -70 -57 -70 3 0 33 32 67 70 34 39 60 70 57
70 -3 0 -33 -31 -67 -70z"/>
<path d="M356 1805 c-9 -26 -7 -32 5 -12 6 10 9 21 6 23 -2 3 -7 -2 -11 -11z"/>
<path d="M2178 1784 c-21 -19 -34 -34 -30 -34 9 1 75 60 70 65 -1 2 -20 -12
-40 -31z"/>
<path d="M1391 1800 c0 -8 4 -22 9 -30 12 -18 12 -2 0 25 -6 13 -9 15 -9 5z"/>
<path d="M2550 1805 c0 -5 5 -17 10 -25 5 -8 10 -10 10 -5 0 6 -5 17 -10 25
-5 8 -10 11 -10 5z"/>
<path d="M1230 1775 c0 -5 5 -17 10 -25 5 -8 10 -10 10 -5 0 6 -5 17 -10 25
-5 8 -10 11 -10 5z"/>
<path d="M2721 1775 c1 -19 18 -51 18 -35 0 8 -4 22 -9 30 -5 8 -9 11 -9 5z"/>
<path d="M1826 1755 c-9 -26 -7 -32 5 -12 6 10 9 21 6 23 -2 3 -7 -2 -11 -11z"/>
<path d="M336 1745 c-3 -9 -6 -22 -5 -28 0 -7 5 -1 10 12 5 13 8 26 5 28 -2 2
-6 -3 -10 -12z"/>
<path d="M2032 1733 c-26 -38 -34 -53 -29 -53 2 0 16 18 31 40 29 45 28 56 -2
13z"/>
<path d="M666 1742 c42 -37 145 -112 132 -97 -9 11 -18 25 -20 30 -1 6 -27 25
-56 43 -52 31 -77 41 -56 24z"/>
<path d="M2468 1681 c-36 -20 -70 -40 -75 -45 -8 -9 121 56 147 73 33 23 -9 7
-72 -28z"/>
<path d="M2741 1704 c0 -11 3 -14 6 -6 3 7 2 16 -1 19 -3 4 -6 -2 -5 -13z"/>
<path d="M321 1684 c0 -11 3 -14 6 -6 3 7 2 16 -1 19 -3 4 -6 -2 -5 -13z"/>
<path d="M565 1671 c6 -5 28 -17 50 -27 52 -21 38 -7 -17 18 -24 11 -38 15
-33 9z"/>
<path d="M805 1663 c6 -6 33 -23 60 -38 28 -16 46 -24 40 -18 -5 6 -32 23 -60
38 -27 16 -45 24 -40 18z"/>
<path d="M2219 1649 l-24 -20 28 17 c15 9 27 18 27 20 0 8 -8 4 -31 -17z"/>
<path d="M311 1644 c0 -11 3 -14 6 -6 3 7 2 16 -1 19 -3 4 -6 -2 -5 -13z"/>
<path d="M2761 1634 c0 -11 3 -14 6 -6 3 7 2 16 -1 19 -3 4 -6 -2 -5 -13z"/>
<path d="M1578 1633 c7 -3 16 -2 19 1 4 3 -2 6 -13 5 -11 0 -14 -3 -6 -6z"/>
<path d="M461 1614 c0 -11 3 -14 6 -6 3 7 2 16 -1 19 -3 4 -6 -2 -5 -13z"/>
<path d="M685 1612 c41 -24 105 -53 105 -47 0 5 -118 65 -129 65 -3 0 8 -8 24
-18z"/>
<path d="M835 1610 c10 -11 20 -20 23 -20 3 0 -3 9 -13 20 -10 11 -20 20 -23
20 -3 0 3 -9 13 -20z"/>
<path d="M1375 1620 c-25 -11 1 -11 35 0 20 6 21 8 5 8 -11 0 -29 -3 -40 -8z"/>
<path d="M1658 1623 c7 -3 16 -2 19 1 4 3 -2 6 -13 5 -11 0 -14 -3 -6 -6z"/>
<path d="M2317 1601 c-57 -34 -75 -50 -28 -26 51 26 97 55 86 54 -5 0 -31 -13
-58 -28z"/>
<path d="M301 1604 c0 -11 3 -14 6 -6 3 7 2 16 -1 19 -3 4 -6 -2 -5 -13z"/>
<path d="M1320 1600 c-8 -5 -10 -10 -5 -10 6 0 17 5 25 10 8 5 11 10 5 10 -5
0 -17 -5 -25 -10z"/>
<path d="M2120 1589 c-22 -18 -22 -19 -3 -10 12 6 25 16 28 21 9 15 3 12 -25
-11z"/>
<path d="M920 1596 c0 -3 9 -10 20 -16 11 -6 20 -8 20 -6 0 3 -9 10 -20 16
-11 6 -20 8 -20 6z"/>
<path d="M1751 1596 c10 -9 89 -46 89 -41 0 5 -75 45 -86 45 -4 0 -5 -2 -3 -4z"/>
<path d="M452 1570 c0 -14 2 -19 5 -12 2 6 2 18 0 25 -3 6 -5 1 -5 -13z"/>
<path d="M1380 1576 l-55 -12 -1 -170 c-1 -93 0 -161 3 -151 2 9 8 17 11 17 4
0 7 66 7 147 l0 148 73 15 c67 13 76 13 102 -2 25 -14 31 -14 41 -2 15 18 80
18 139 0 l45 -13 3 -141 c3 -139 2 -141 -20 -145 -21 -4 -20 -4 4 -6 16 0 28
-8 31 -18 3 -10 4 58 3 151 l-1 169 -55 14 c-32 8 -76 12 -105 9 -59 -6 -57
-6 -120 -2 -27 2 -75 -1 -105 -8z"/>
<path d="M2621 1574 c0 -11 3 -14 6 -6 3 7 2 16 -1 19 -3 4 -6 -2 -5 -13z"/>
<path d="M2772 1565 c0 -16 2 -22 5 -12 2 9 2 23 0 30 -3 6 -5 -1 -5 -18z"/>
<path d="M1229 1549 l-24 -20 28 17 c15 9 27 18 27 20 0 8 -8 4 -31 -17z"/>
<path d="M292 1535 c0 -16 2 -22 5 -12 2 9 2 23 0 30 -3 6 -5 -1 -5 -18z"/>
<path d="M2182 1531 c-57 -31 -79 -47 -48 -35 31 12 122 64 111 63 -5 0 -34
-13 -63 -28z"/>
<path d="M1865 1530 c10 -11 20 -20 23 -20 3 0 -3 9 -13 20 -10 11 -20 20 -23
20 -3 0 3 -9 13 -20z"/>
<path d="M2631 1534 c0 -11 3 -14 6 -6 3 7 2 16 -1 19 -3 4 -6 -2 -5 -13z"/>
<path d="M1542 1409 c-2 -135 -2 -136 -24 -134 -14 1 -16 0 -5 -2 10 -3 21
-11 24 -19 4 -11 10 -10 31 7 22 17 36 20 82 15 52 -5 53 -4 15 5 -39 10 -64
9 -97 -6 -16 -6 -18 5 -21 132 l-3 138 -2 -136z"/>
<path d="M1154 1488 c-44 -46 -84 -101 -84 -114 0 -5 12 9 26 31 15 22 45 59
67 83 23 23 39 42 36 42 -3 0 -23 -19 -45 -42z"/>
<path d="M2782 1500 c0 -19 2 -27 5 -17 2 9 2 25 0 35 -3 9 -5 1 -5 -18z"/>
<path d="M442 1495 c0 -16 2 -22 5 -12 2 9 2 23 0 30 -3 6 -5 -1 -5 -18z"/>
<path d="M520 1504 c0 -2 29 -17 65 -33 51 -24 71 -28 88 -20 19 8 19 9 -6 4
-16 -3 -26 -2 -23 3 3 4 -24 18 -60 29 -35 12 -64 19 -64 17z"/>
<path d="M1915 1490 c10 -11 20 -20 23 -20 3 0 -3 9 -13 20 -10 11 -20 20 -23
20 -3 0 3 -9 13 -20z"/>
<path d="M2441 1485 c-46 -15 -60 -23 -47 -28 15 -6 116 36 116 48 0 3 -1 4
-2 4 -2 -1 -32 -12 -67 -24z"/>
<path d="M1500 1489 c0 -5 5 -7 10 -4 6 3 10 8 10 11 0 2 -4 4 -10 4 -5 0 -10
-5 -10 -11z"/>
<path d="M284 1360 c0 -58 1 -81 3 -52 2 28 2 76 0 105 -2 28 -3 5 -3 -53z"/>
<path d="M1975 1410 c19 -28 35 -57 35 -63 0 -6 3 -8 6 -4 8 7 -38 88 -61 107
-9 7 0 -11 20 -40z"/>
<path d="M715 1440 c11 -5 27 -9 35 -9 9 0 8 4 -5 9 -11 5 -27 9 -35 9 -9 0
-8 -4 5 -9z"/>
<path d="M430 1350 c0 -51 2 -91 5 -89 7 7 8 169 1 176 -3 3 -6 -36 -6 -87z"/>
<path d="M1500 1429 c0 -5 5 -7 10 -4 6 3 10 8 10 11 0 2 -4 4 -10 4 -5 0 -10
-5 -10 -11z"/>
<path d="M720 1410 c19 -11 40 -19 45 -19 6 0 -6 8 -25 19 -19 11 -39 19 -45
19 -5 0 6 -8 25 -19z"/>
<path d="M2793 1370 c0 -36 2 -50 4 -32 2 17 2 47 0 65 -2 17 -4 3 -4 -33z"/>
<path d="M808 1413 c7 -3 16 -2 19 1 4 3 -2 6 -13 5 -11 0 -14 -3 -6 -6z"/>
<path d="M2288 1404 c-39 -21 -35 -28 5 -8 37 19 44 24 31 24 -5 -1 -21 -8
-36 -16z"/>
<path d="M2550 1400 c-20 -6 -21 -8 -5 -8 11 0 31 4 45 8 20 6 21 8 5 8 -11 0
-31 -4 -45 -8z"/>
<path d="M480 1390 c34 -11 60 -11 35 0 -11 5 -29 8 -40 8 -16 0 -15 -2 5 -8z"/>
<path d="M1901 1384 c0 -11 3 -14 6 -6 3 7 2 16 -1 19 -3 4 -6 -2 -5 -13z"/>
<path d="M810 1370 c19 -11 40 -19 45 -19 6 0 -6 8 -25 19 -19 11 -39 19 -45
19 -5 0 6 -8 25 -19z"/>
<path d="M908 1383 c7 -3 16 -2 19 1 4 3 -2 6 -13 5 -11 0 -14 -3 -6 -6z"/>
<path d="M1705 1380 c-3 -5 -1 -10 4 -10 6 0 11 5 11 10 0 6 -2 10 -4 10 -3 0
-8 -4 -11 -10z"/>
<path d="M1877 1338 c1 -29 2 -55 3 -57 0 -3 5 0 11 6 12 12 4 103 -9 103 -4
0 -6 -24 -5 -52z"/>
<path d="M558 1373 c6 -2 18 -2 25 0 6 3 1 5 -13 5 -14 0 -19 -2 -12 -5z"/>
<path d="M1375 1370 c-3 -5 -1 -10 4 -10 6 0 11 5 11 10 0 6 -2 10 -4 10 -3 0
-8 -4 -11 -10z"/>
<path d="M1610 1369 c0 -5 5 -7 10 -4 6 3 10 8 10 11 0 2 -4 4 -10 4 -5 0 -10
-5 -10 -11z"/>
<path d="M1640 1369 c0 -5 5 -7 10 -4 6 3 10 8 10 11 0 2 -4 4 -10 4 -5 0 -10
-5 -10 -11z"/>
<path d="M2190 1355 c-25 -13 -40 -24 -35 -24 6 0 30 11 55 24 25 13 41 24 35
24 -5 0 -30 -11 -55 -24z"/>
<path d="M2420 1370 c-20 -6 -21 -8 -5 -8 11 0 31 4 45 8 20 6 21 8 5 8 -11 0
-31 -4 -45 -8z"/>
<path d="M608 1363 c6 -2 18 -2 25 0 6 3 1 5 -13 5 -14 0 -19 -2 -12 -5z"/>
<path d="M658 1353 c7 -3 16 -2 19 1 4 3 -2 6 -13 5 -11 0 -14 -3 -6 -6z"/>
<path d="M2368 1353 c7 -3 16 -2 19 1 4 3 -2 6 -13 5 -11 0 -14 -3 -6 -6z"/>
<path d="M720 1340 c14 -4 34 -8 45 -8 16 0 15 2 -5 8 -14 4 -34 8 -45 8 -16
0 -15 -2 5 -8z"/>
<path d="M2318 1343 c7 -3 16 -2 19 1 4 3 -2 6 -13 5 -11 0 -14 -3 -6 -6z"/>
<path d="M2240 1330 c-20 -6 -21 -8 -5 -8 11 0 31 4 45 8 20 6 21 8 5 8 -11 0
-31 -4 -45 -8z"/>
<path d="M798 1323 c6 -2 18 -2 25 0 6 3 1 5 -13 5 -14 0 -19 -2 -12 -5z"/>
<path d="M848 1313 c6 -2 18 -2 25 0 6 3 1 5 -13 5 -14 0 -19 -2 -12 -5z"/>
<path d="M2031 1274 c0 -11 3 -14 6 -6 3 7 2 16 -1 19 -3 4 -6 -2 -5 -13z"/>
<path d="M1433 1273 c9 -2 25 -2 35 0 9 3 1 5 -18 5 -19 0 -27 -2 -17 -5z"/>
<path d="M1373 1263 c9 -2 23 -2 30 0 6 3 -1 5 -18 5 -16 0 -22 -2 -12 -5z"/>
<path d="M2782 1240 c0 -19 2 -27 5 -17 2 9 2 25 0 35 -3 9 -5 1 -5 -18z"/>
<path d="M442 1225 c0 -16 2 -22 5 -12 2 9 2 23 0 30 -3 6 -5 -1 -5 -18z"/>
<path d="M462 1245 c8 -9 160 -36 167 -30 2 3 -4 5 -15 5 -16 0 -17 2 -4 10
11 7 -3 10 -45 10 -33 0 -71 3 -85 7 -14 3 -22 3 -18 -2z"/>
<path d="M1033 1190 c0 -36 2 -50 4 -32 2 17 2 47 0 65 -2 17 -4 3 -4 -33z"/>
<path d="M1390 1240 c-24 -5 -7 -7 51 -6 48 1 82 4 75 8 -13 9 -78 8 -126 -2z"/>
<path d="M1584 1242 c-7 -4 23 -8 65 -8 63 -1 69 0 36 7 -51 10 -87 11 -101 1z"/>
<path d="M2470 1240 c-36 -4 -56 -8 -45 -9 17 -3 17 -4 -5 -11 -14 -4 -20 -8
-15 -9 14 -1 159 29 164 35 5 4 1 4 -99 -6z"/>
<path d="M2043 1200 c0 -25 2 -35 4 -22 2 12 2 32 0 45 -2 12 -4 2 -4 -23z"/>
<path d="M292 1210 c0 -14 2 -19 5 -12 2 6 2 18 0 25 -3 6 -5 1 -5 -13z"/>
<path d="M758 1223 c12 -2 30 -2 40 0 9 3 -1 5 -23 4 -22 0 -30 -2 -17 -4z"/>
<path d="M828 1223 c7 -3 16 -2 19 1 4 3 -2 6 -13 5 -11 0 -14 -3 -6 -6z"/>
<path d="M2238 1223 c12 -2 32 -2 45 0 12 2 2 4 -23 4 -25 0 -35 -2 -22 -4z"/>
<path d="M658 1203 c6 -2 18 -2 25 0 6 3 1 5 -13 5 -14 0 -19 -2 -12 -5z"/>
<path d="M2358 1203 c6 -2 18 -2 25 0 6 3 1 5 -13 5 -14 0 -19 -2 -12 -5z"/>
<path d="M718 1193 c7 -3 16 -2 19 1 4 3 -2 6 -13 5 -11 0 -14 -3 -6 -6z"/>
<path d="M2308 1193 c7 -3 16 -2 19 1 4 3 -2 6 -13 5 -11 0 -14 -3 -6 -6z"/>
<path d="M2632 1180 c0 -14 2 -19 5 -12 2 6 2 18 0 25 -3 6 -5 1 -5 -13z"/>
<path d="M768 1183 c6 -2 18 -2 25 0 6 3 1 5 -13 5 -14 0 -19 -2 -12 -5z"/>
<path d="M2258 1183 c6 -2 18 -2 25 0 6 3 1 5 -13 5 -14 0 -19 -2 -12 -5z"/>
<path d="M2772 1170 c0 -14 2 -19 5 -12 2 6 2 18 0 25 -3 6 -5 1 -5 -13z"/>
<path d="M818 1173 c7 -3 16 -2 19 1 4 3 -2 6 -13 5 -11 0 -14 -3 -6 -6z"/>
<path d="M2218 1173 c7 -3 16 -2 19 1 4 3 -2 6 -13 5 -11 0 -14 -3 -6 -6z"/>
<path d="M302 1135 c0 -11 4 -31 8 -45 6 -20 8 -21 8 -5 0 11 -4 31 -8 45 -6
20 -8 21 -8 5z"/>
<path d="M451 1134 c0 -11 3 -14 6 -6 3 7 2 16 -1 19 -3 4 -6 -2 -5 -13z"/>
<path d="M2622 1130 c0 -14 2 -19 5 -12 2 6 2 18 0 25 -3 6 -5 1 -5 -13z"/>
<path d="M2031 1124 c0 -11 3 -14 6 -6 3 7 2 16 -1 19 -3 4 -6 -2 -5 -13z"/>
<path d="M2611 1084 c0 -11 3 -14 6 -6 3 7 2 16 -1 19 -3 4 -6 -2 -5 -13z"/>
<path d="M1890 1075 c0 -8 8 -11 20 -8 11 3 20 7 20 8 0 1 -9 5 -20 8 -12 3
-20 0 -20 -8z"/>
<path d="M2751 1064 c0 -11 3 -14 6 -6 3 7 2 16 -1 19 -3 4 -6 -2 -5 -13z"/>
<path d="M321 1044 c0 -11 3 -14 6 -6 3 7 2 16 -1 19 -3 4 -6 -2 -5 -13z"/>
<path d="M2591 1019 c-7 -22 -11 -43 -8 -45 2 -2 9 14 16 37 7 22 11 43 8 45
-2 2 -9 -14 -16 -37z"/>
<path d="M1900 1039 c0 -5 5 -7 10 -4 6 3 10 8 10 11 0 2 -4 4 -10 4 -5 0 -10
-5 -10 -11z"/>
<path d="M2741 1024 c0 -11 3 -14 6 -6 3 7 2 16 -1 19 -3 4 -6 -2 -5 -13z"/>
<path d="M486 1010 c3 -14 11 -32 16 -40 6 -10 7 -7 2 10 -3 14 -11 32 -16 40
-6 10 -7 7 -2 -10z"/>
<path d="M331 1010 c0 -8 4 -22 9 -30 12 -18 12 -2 0 25 -6 13 -9 15 -9 5z"/>
<path d="M1389 967 c-13 -10 -7 -12 30 -13 25 0 39 1 31 4 -8 3 -22 8 -30 12
-9 5 -22 3 -31 -3z"/>
<path d="M510 945 c0 -5 5 -17 10 -25 5 -8 10 -10 10 -5 0 6 -5 17 -10 25 -5
8 -10 11 -10 5z"/>
<path d="M820 925 c13 -14 26 -25 28 -25 3 0 -5 11 -18 25 -13 14 -26 25 -28
25 -3 0 5 -11 18 -25z"/>
<path d="M1328 943 c6 -2 18 -2 25 0 6 3 1 5 -13 5 -14 0 -19 -2 -12 -5z"/>
<path d="M2552 915 c-17 -37 -14 -45 4 -12 9 16 14 31 11 33 -2 2 -9 -7 -15
-21z"/>
<path d="M360 925 c0 -5 5 -17 10 -25 5 -8 10 -10 10 -5 0 6 -5 17 -10 25 -5
8 -10 11 -10 5z"/>
<path d="M1010 875 c-10 -11 -9 -18 3 -30 9 -8 19 -15 24 -15 4 0 14 -9 21
-21 9 -14 20 -19 33 -16 13 3 19 0 19 -11 0 -8 3 -12 8 -8 4 4 7 13 7 19 0 7
8 13 18 15 20 4 23 -18 5 -36 -7 -7 -8 -12 -2 -12 16 0 34 22 34 43 0 11 5 17
13 14 6 -2 10 -11 8 -18 -13 -47 -12 -55 7 -56 13 -1 19 4 18 15 0 9 6 17 14
17 9 0 15 -9 15 -25 0 -21 6 -26 40 -31 22 -4 45 -3 52 3 7 6 14 5 18 -2 11
-18 42 -11 50 13 7 21 8 21 15 -8 6 -23 8 -25 9 -8 0 12 6 25 13 29 8 5 9 0 6
-14 -4 -12 -2 -22 3 -22 5 0 9 11 9 24 0 14 5 28 10 31 17 11 11 24 -10 22
-11 -1 -20 -7 -20 -14 0 -8 -11 -11 -32 -9 -18 2 -38 0 -44 -5 -7 -6 -16 -4
-24 6 -19 23 -47 18 -54 -10 -4 -14 -11 -23 -17 -19 -6 3 -8 8 -5 11 11 11
-15 43 -34 43 -13 0 -20 7 -20 19 0 26 -17 36 -35 21 -8 -7 -22 -9 -31 -6 -9
4 -23 1 -30 -5 -11 -9 -14 -8 -14 5 0 21 -49 65 -71 66 -9 0 -22 -7 -29 -15z
m330 -130 c0 -8 -7 -15 -15 -15 -8 0 -15 7 -15 15 0 8 7 15 15 15 8 0 15 -7
15 -15z m60 -5 c0 -5 -2 -10 -4 -10 -3 0 -8 5 -11 10 -3 6 -1 10 4 10 6 0 11
-4 11 -10z"/>
<path d="M2686 875 c-9 -26 -7 -32 5 -12 6 10 9 21 6 23 -2 3 -7 -2 -11 -11z"/>
<path d="M381 875 c0 -5 6 -21 14 -35 8 -14 14 -20 14 -15 0 6 -6 21 -14 35
-8 14 -14 21 -14 15z"/>
<path d="M1983 864 c-3 -8 -1 -20 5 -26 15 -15 43 8 35 28 -7 19 -32 18 -40
-2z"/>
<path d="M550 851 c0 -6 4 -13 10 -16 6 -3 7 1 4 9 -7 18 -14 21 -14 7z"/>
<path d="M1950 849 c0 -9 9 -24 20 -34 11 -10 17 -22 14 -27 -4 -6 -10 -5 -15
3 -7 11 -9 10 -9 -4 0 -12 6 -17 17 -15 27 5 26 29 -2 63 -17 20 -25 25 -25
14z"/>
<path d="M1868 821 c-20 -10 -39 -16 -42 -13 -4 3 -6 -3 -6 -13 0 -15 -3 -16
-12 -7 -17 17 -35 15 -58 -8 -11 -11 -20 -15 -20 -10 0 6 -13 9 -30 8 -24 -2
-30 -7 -30 -25 0 -12 -4 -25 -10 -28 -5 -3 -10 3 -10 14 0 32 -20 36 -21 4 -1
-21 -3 -23 -6 -8 -7 30 -18 37 -47 29 -19 -4 -26 -13 -26 -30 0 -13 4 -24 9
-24 5 0 7 9 4 20 -3 11 0 20 6 20 6 0 11 -10 12 -22 1 -22 1 -22 8 2 l7 25 8
-23 c7 -21 12 -22 64 -17 31 3 59 9 62 14 3 5 16 8 30 7 14 -1 34 1 46 5 11 4
28 3 37 -2 11 -7 17 -6 17 1 0 5 -4 10 -10 10 -5 0 -10 4 -10 9 0 4 11 7 25 6
14 -2 25 1 25 6 0 5 8 9 18 9 32 0 45 15 33 39 -14 25 -25 26 -73 2z m2 -37
c0 -8 -4 -12 -10 -9 -5 3 -10 10 -10 16 0 5 5 9 10 9 6 0 10 -7 10 -16z m-158
-46 c-15 -15 -26 -4 -18 18 5 13 9 15 18 6 9 -9 9 -15 0 -24z"/>
<path d="M2500 810 c-6 -11 -8 -20 -6 -20 3 0 10 9 16 20 6 11 8 20 6 20 -3 0
-10 -9 -16 -20z"/>
<path d="M589 785 c5 -11 17 -29 26 -40 l16 -20 -10 20 c-5 11 -17 29 -26 40
l-16 20 10 -20z"/>
<path d="M440 751 c11 -22 24 -42 29 -46 6 -3 -2 15 -15 40 -31 55 -42 60 -14
6z"/>
<path d="M2455 738 c-16 -24 -22 -38 -14 -31 15 12 53 73 46 73 -2 0 -17 -19
-32 -42z"/>
<path d="M2625 750 c-9 -16 -13 -30 -11 -30 3 0 12 14 21 30 9 17 13 30 11 30
-3 0 -12 -13 -21 -30z"/>
<path d="M1005 752 c13 -13 116 -54 122 -49 2 3 -9 9 -24 15 -15 5 -46 18 -68
27 -22 9 -35 12 -30 7z"/>
<path d="M649 692 c11 -16 28 -35 38 -43 9 -8 2 5 -17 29 -38 48 -52 57 -21
14z"/>
<path d="M2568 658 c-75 -111 -189 -227 -308 -312 -59 -43 -85 -64 -60 -51 28
15 115 79 169 125 56 47 192 205 224 259 29 49 13 36 -25 -21z"/>
<path d="M495 663 c96 -152 313 -351 390 -358 26 -2 38 2 45 15 17 31 11 44
-8 20 -22 -28 -48 -19 -32 10 15 28 12 38 -5 16 -8 -11 -15 -28 -15 -38 0 -10
-5 -15 -13 -12 -8 3 -11 18 -9 44 3 31 8 40 23 40 10 0 19 4 19 10 0 5 -13 7
-29 4 -26 -6 -29 -4 -24 15 8 31 -3 26 -27 -14 -12 -19 -29 -35 -38 -35 -22 0
-200 183 -247 253 -38 57 -63 82 -30 30z m339 -299 c9 -34 5 -37 -23 -18 -17
13 -20 19 -10 30 17 21 26 17 33 -12z"/>
<path d="M1180 682 c19 -12 152 -42 182 -41 13 0 -16 9 -63 19 -47 10 -97 21
-110 24 -17 5 -20 4 -9 -2z"/>
<path d="M1848 684 c-3 -3 -46 -14 -94 -25 -63 -14 -74 -18 -39 -15 51 5 183
43 154 45 -9 1 -18 -2 -21 -5z"/>
<path d="M2409 673 c-13 -16 -12 -17 4 -4 16 13 21 21 13 21 -2 0 -10 -8 -17
-17z"/>
<path d="M2335 589 c-33 -33 -87 -81 -120 -107 -67 -50 -89 -70 -65 -57 52 29
270 225 249 225 -2 0 -31 -27 -64 -61z"/>
<path d="M1452 633 c37 -2 100 -2 140 0 40 1 10 3 -67 3 -77 0 -110 -1 -73 -3z"/>
<path d="M725 601 c53 -59 171 -155 245 -199 40 -24 74 -41 76 -39 2 2 -18 16
-45 30 -67 37 -154 102 -237 178 -38 35 -55 48 -39 30z"/>
<path d="M2205 414 c-9 -9 -13 -19 -10 -22 3 -4 10 0 15 8 5 8 12 11 16 7 4
-3 1 -14 -6 -22 -17 -21 3 -46 22 -27 9 9 9 12 0 12 -7 0 -12 5 -12 11 0 6 9
8 20 4 25 -8 26 7 2 28 -23 21 -27 21 -47 1z"/>
<path d="M2104 404 c-18 -14 -18 -15 4 -4 12 6 22 13 22 15 0 8 -5 6 -26 -11z"/>
<path d="M2160 385 c-11 -13 -11 -20 0 -40 7 -14 17 -25 22 -25 12 0 10 18 -3
26 -6 3 -8 17 -5 30 7 28 4 30 -14 9z"/>
<path d="M2020 360 c-30 -16 -51 -29 -47 -30 10 0 107 49 107 55 0 7 1 7 -60
-25z"/>
<path d="M955 330 c-24 -54 -12 -63 14 -11 23 45 25 51 13 51 -5 0 -17 -18
-27 -40z"/>
<path d="M2095 340 c-10 -11 -13 -20 -7 -20 7 0 12 5 12 10 0 6 7 10 17 10 15
0 15 -1 0 -18 -10 -10 -17 -24 -17 -31 0 -21 -24 -6 -31 20 -6 22 -7 22 -14 5
-8 -18 -9 -18 -22 -1 -23 32 -25 9 -3 -34 22 -43 36 -55 25 -21 -7 23 -2 25
26 10 13 -7 19 -7 19 0 0 5 6 10 13 10 6 0 21 7 31 15 18 13 18 16 2 40 -20
30 -27 31 -51 5z m45 -28 c0 -13 -12 -22 -22 -16 -10 6 -1 24 13 24 5 0 9 -4
9 -8z"/>
<path d="M1100 335 c14 -8 30 -14 35 -14 6 0 -1 6 -15 14 -14 8 -29 14 -35 14
-5 0 1 -6 15 -14z"/>
<path d="M1003 313 c25 -7 21 -23 -5 -20 -27 2 -37 -27 -12 -37 12 -4 15 -2
10 9 -3 9 0 15 8 15 9 0 12 -7 9 -20 -3 -11 -1 -20 5 -20 13 0 26 55 17 70 -3
5 -16 9 -28 9 -17 -1 -18 -2 -4 -6z"/>
<path d="M1070 316 c0 -2 -7 -19 -15 -39 -12 -29 -12 -37 -1 -46 11 -9 14 -6
14 15 0 14 3 29 8 33 12 8 14 41 3 41 -5 0 -9 -2 -9 -4z"/>
<path d="M1160 310 c8 -5 20 -10 25 -10 6 0 3 5 -5 10 -8 5 -19 10 -25 10 -5
0 -3 -5 5 -10z"/>
<path d="M1098 268 c-9 -27 -13 -48 -8 -48 5 0 12 9 15 20 3 11 13 20 20 20
11 0 13 -8 8 -32 -4 -20 -3 -29 4 -25 6 4 13 19 16 33 3 20 0 28 -14 31 -10 3
-19 15 -21 27 -3 15 -8 8 -20 -26z"/>
<path d="M880 296 c0 -7 130 -79 135 -75 2 2 -28 21 -66 42 -38 20 -69 35 -69
33z"/>
<path d="M1208 293 c7 -3 16 -2 19 1 4 3 -2 6 -13 5 -11 0 -14 -3 -6 -6z"/>
<path d="M1835 290 c-13 -5 -14 -9 -5 -9 8 0 24 4 35 9 13 5 14 9 5 9 -8 0
-24 -4 -35 -9z"/>
<path d="M1255 280 c11 -5 27 -9 35 -9 9 0 8 4 -5 9 -11 5 -27 9 -35 9 -9 0
-8 -4 5 -9z"/>
<path d="M1963 283 c-18 -7 -16 -35 2 -59 15 -18 16 -17 10 13 -8 40 12 53 25
17 13 -33 23 -26 14 10 -6 25 -22 31 -51 19z"/>
<path d="M2148 274 c-38 -20 -36 -28 2 -9 17 9 30 18 30 20 0 7 -1 6 -32 -11z"/>
<path d="M1788 273 c7 -3 16 -2 19 1 4 3 -2 6 -13 5 -11 0 -14 -3 -6 -6z"/>
<path d="M1870 265 c0 -18 -30 -21 -30 -2 0 6 -5 4 -11 -6 -8 -14 -8 -22 0
-30 6 -6 11 -19 11 -29 0 -10 7 -18 17 -18 13 0 14 3 5 12 -17 17 -15 48 3 48
8 0 15 -9 15 -20 0 -11 7 -23 15 -27 24 -9 29 4 11 23 -10 9 -15 22 -13 28 3
6 -2 17 -9 24 -12 10 -14 10 -14 -3z"/>
<path d="M1328 263 c7 -3 16 -2 19 1 4 3 -2 6 -13 5 -11 0 -14 -3 -6 -6z"/>
<path d="M1728 263 c6 -2 18 -2 25 0 6 3 1 5 -13 5 -14 0 -19 -2 -12 -5z"/>
<path d="M1920 250 c0 -14 5 -32 10 -40 8 -12 10 -10 10 10 0 14 -5 32 -10 40
-8 12 -10 10 -10 -10z"/>
<path d="M1176 244 c-31 -30 -8 -60 40 -55 19 2 23 40 7 56 -18 19 -28 19 -47
-1z m44 -19 c0 -16 -27 -32 -37 -22 -3 4 -3 13 0 22 8 20 37 20 37 0z"/>
<path d="M1393 253 c9 -2 23 -2 30 0 6 3 -1 5 -18 5 -16 0 -22 -2 -12 -5z"/>
<path d="M1653 253 c9 -2 25 -2 35 0 9 3 1 5 -18 5 -19 0 -27 -2 -17 -5z"/>
<path d="M1446 219 c-9 -45 -8 -69 3 -69 5 0 11 12 13 28 l3 27 20 -32 c25
-42 35 -42 37 2 0 19 1 41 2 48 1 7 22 14 51 18 42 5 36 6 -36 7 l-86 2 -7
-31z m64 -11 l-1 -33 -19 24 c-25 30 -25 41 0 41 16 0 20 -7 20 -32z"/>
<path d="M2085 240 c-3 -6 1 -7 9 -4 18 7 21 14 7 14 -6 0 -13 -4 -16 -10z"/>
<path d="M1250 225 c-20 -25 -8 -50 25 -50 24 0 31 5 33 24 6 37 -34 55 -58
26z m48 -24 c-5 -24 -38 -27 -38 -3 0 10 3 21 6 25 11 11 35 -5 32 -22z"/>
<path d="M1773 233 c-22 -8 -14 -21 10 -17 l22 5 -23 -12 c-30 -16 -24 -45 8
-41 32 3 35 8 24 39 -9 28 -21 35 -41 26z m19 -55 c-7 -7 -12 -8 -12 -2 0 14
12 26 19 19 2 -3 -1 -11 -7 -17z"/>
<path d="M1330 217 c0 -7 -3 -22 -6 -34 -4 -14 -2 -23 5 -23 6 0 11 9 11 20 0
10 7 23 16 28 14 8 13 10 -5 15 -12 3 -21 0 -21 -6z"/>
<path d="M2030 215 c-14 -8 -20 -14 -15 -14 6 0 21 6 35 14 14 8 21 14 15 14
-5 0 -21 -6 -35 -14z"/>
<path d="M1652 195 c-10 -29 -11 -29 -17 -7 -4 12 -11 22 -16 22 -12 0 -11 -6
7 -41 14 -29 14 -32 -3 -45 -16 -12 -14 -13 22 -13 22 1 32 3 23 6 -21 5 -22
10 -7 51 6 17 9 37 7 44 -3 7 -10 0 -16 -17z"/>
<path d="M1681 217 c-1 -4 6 -22 15 -38 12 -24 13 -34 3 -45 -9 -12 -6 -14 22
-13 19 1 27 3 17 6 -13 3 -15 10 -7 36 13 46 11 67 -5 39 l-13 -24 -16 24 c-9
13 -16 19 -16 15z"/>
<path d="M1543 194 c-3 -9 -2 -24 4 -33 11 -18 53 -28 53 -12 0 6 -6 8 -14 5
-8 -3 -17 -1 -21 5 -3 6 2 11 13 11 26 0 34 11 21 27 -16 18 -48 16 -56 -3z
m47 -4 c0 -5 -7 -10 -15 -10 -8 0 -15 5 -15 10 0 6 7 10 15 10 8 0 15 -4 15
-10z"/>
<path d="M1100 185 c14 -8 32 -14 40 -14 8 0 0 6 -19 14 -42 19 -54 19 -21 0z"/>
<path d="M1970 190 c-8 -5 -10 -10 -5 -10 6 0 17 5 25 10 8 5 11 10 5 10 -5 0
-17 -5 -25 -10z"/>
<path d="M1370 154 c0 -8 5 -12 10 -9 6 4 8 11 5 16 -9 14 -15 11 -15 -7z"/>
<path d="M1875 160 c-13 -5 -14 -9 -5 -9 8 0 24 4 35 9 13 5 14 9 5 9 -8 0
-24 -4 -35 -9z"/>
<path d="M1205 150 c11 -5 27 -9 35 -9 9 0 8 4 -5 9 -11 5 -27 9 -35 9 -9 0
-8 -4 5 -9z"/>
<path d="M1288 133 c7 -3 16 -2 19 1 4 3 -2 6 -13 5 -11 0 -14 -3 -6 -6z"/>
<path d="M1768 133 c6 -2 18 -2 25 0 6 3 1 5 -13 5 -14 0 -19 -2 -12 -5z"/>
<path d="M1333 123 c9 -2 23 -2 30 0 6 3 -1 5 -18 5 -16 0 -22 -2 -12 -5z"/>
<path d="M1403 113 c9 -2 25 -2 35 0 9 3 1 5 -18 5 -19 0 -27 -2 -17 -5z"/>
</g>
</svg>
