<?xml version="1.0" standalone="no"?>
<!DOCTYPE svg PUBLIC "-//W3C//DTD SVG 20010904//EN"
 "http://www.w3.org/TR/2001/REC-SVG-20010904/DTD/svg10.dtd">
<svg version="1.0" xmlns="http://www.w3.org/2000/svg"
 width="1109.000000pt" height="1109.000000pt" viewBox="0 0 1109.000000 1109.000000"
 preserveAspectRatio="xMidYMid meet">

<g transform="translate(0.000000,1109.000000) scale(0.100000,-0.100000)"
fill="#000000" stroke="none">
<path d="M3560 6244 c0 -3 29 -47 63 -97 35 -51 125 -182 200 -293 l136 -201
-43 -64 c-23 -35 -112 -168 -199 -296 -86 -127 -157 -234 -157 -237 0 -3 67
-6 149 -6 l148 0 402 594 c220 327 401 597 401 600 0 3 -66 6 -148 6 l-147 0
-72 -107 c-39 -60 -96 -143 -126 -186 l-55 -78 -34 48 c-19 26 -76 110 -127
186 l-91 137 -150 0 c-83 0 -150 -3 -150 -6z"/>
<path d="M7130 6063 l0 -167 -32 31 c-57 54 -95 68 -183 68 -70 0 -87 -4 -134
-30 -89 -49 -140 -125 -164 -241 -14 -71 -18 -69 -32 11 -17 102 -84 188 -184
236 -66 33 -225 34 -293 2 -66 -30 -139 -102 -174 -170 -27 -54 -29 -66 -29
-168 0 -100 3 -115 28 -166 88 -181 332 -252 527 -154 42 21 119 91 109 98 -2
1 -32 27 -67 56 l-63 54 -22 -20 c-85 -78 -213 -69 -267 19 -11 18 -20 36 -20
41 0 4 105 7 234 7 179 0 235 3 239 13 2 6 7 -8 12 -33 17 -107 84 -203 168
-244 106 -52 205 -44 295 24 l52 40 0 -40 0 -40 120 0 120 0 0 470 0 470 -120
0 -120 0 0 -167z m-812 -259 c26 -18 52 -65 52 -94 0 -19 -6 -20 -120 -20
-132 0 -135 2 -105 60 33 65 119 92 173 54z m740 -24 c90 -55 105 -189 28
-266 -45 -45 -95 -53 -152 -25 -83 40 -114 135 -73 218 43 86 126 116 197 73z"/>
<path d="M7440 6140 l0 -90 118 0 c65 0 121 2 123 4 2 2 3 43 1 90 l-3 86
-120 0 -119 0 0 -90z"/>
<path d="M1595 5991 c-143 -35 -237 -185 -221 -353 8 -85 34 -146 85 -197 57
-57 114 -83 191 -89 85 -6 138 10 199 58 l51 40 0 -27 c0 -173 -167 -220 -420
-119 -11 4 -25 -15 -53 -70 -21 -42 -37 -77 -35 -79 2 -2 26 -13 53 -25 76
-33 176 -50 288 -50 216 0 321 56 380 202 20 50 22 73 25 381 l3 327 -120 0
-121 0 0 -40 c0 -22 -2 -40 -5 -40 -3 0 -26 15 -52 34 -72 51 -160 68 -248 47z
m241 -200 c17 -10 38 -34 47 -54 74 -155 -128 -281 -242 -152 -54 61 -38 163
32 205 42 26 121 26 163 1z"/>
<path d="M2420 5987 c-25 -7 -66 -27 -91 -44 -109 -76 -153 -164 -154 -313 0
-84 3 -102 29 -158 36 -77 104 -142 184 -173 45 -18 78 -23 157 -23 89 -1 107
2 161 27 34 16 78 46 99 67 l37 38 -38 35 c-22 19 -50 44 -63 54 l-24 20 -55
-34 c-95 -57 -193 -41 -242 39 -11 18 -20 36 -20 41 0 4 106 7 236 7 l237 0
-5 83 c-9 149 -73 259 -183 313 -66 32 -192 42 -265 21z m168 -183 c22 -15 44
-50 56 -91 l7 -23 -125 0 c-138 0 -141 2 -111 60 33 65 119 92 173 54z"/>
<path d="M3276 5985 c-21 -7 -58 -33 -82 -56 -24 -24 -44 -39 -45 -34 0 6 -1
28 -2 50 l-2 40 -117 3 -118 3 0 -351 0 -350 120 0 120 0 0 214 0 214 25 30
c31 37 75 48 116 32 54 -23 59 -47 59 -280 l0 -210 126 0 126 0 -4 268 c-3
256 -4 269 -27 315 -52 106 -178 154 -295 112z"/>
<path d="M5095 5976 c-27 -13 -61 -35 -74 -50 -14 -14 -28 -26 -33 -26 -4 0
-8 20 -8 45 l0 46 -117 -3 -118 -3 -3 -347 -2 -348 120 0 120 0 0 200 c0 224
7 258 59 284 36 19 52 20 86 4 50 -23 55 -49 55 -278 l0 -210 125 0 125 0 0
215 0 215 29 32 c39 44 98 46 139 5 l27 -27 3 -220 3 -220 120 0 120 0 -3 273
c-3 270 -3 273 -29 322 -18 35 -39 59 -74 80 -44 27 -56 30 -134 30 -96 -1
-125 -12 -191 -71 l-39 -35 -43 44 c-68 71 -169 87 -263 43z"/>
<path d="M8880 5991 c-42 -13 -84 -38 -109 -65 -34 -36 -41 -33 -41 19 l0 45
-120 0 -120 0 0 -350 0 -350 120 0 120 0 0 188 c0 103 5 205 10 227 15 65 73
98 131 75 60 -25 64 -41 64 -277 l0 -213 123 0 122 0 0 215 0 215 29 32 c39
44 98 46 139 5 l27 -27 3 -220 3 -220 120 0 120 0 -3 273 c-3 270 -3 273 -29
322 -67 131 -268 154 -392 45 l-46 -41 -43 44 c-58 60 -146 82 -228 58z"/>
<path d="M7440 5640 l0 -350 120 0 120 0 0 350 0 350 -120 0 -120 0 0 -350z"/>
<path d="M7740 5737 c0 -277 8 -329 57 -387 43 -51 98 -74 178 -74 80 0 118
15 178 72 l37 36 0 -47 0 -47 120 0 120 0 0 350 0 350 -120 0 -120 0 0 -210
c0 -223 -6 -256 -49 -280 -29 -15 -93 -12 -118 5 -35 25 -43 77 -43 288 l0
197 -120 0 -120 0 0 -253z"/>
</g>
</svg>
