<?xml version="1.0" standalone="no"?>
<!DOCTYPE svg PUBLIC "-//W3C//DTD SVG 20010904//EN"
 "http://www.w3.org/TR/2001/REC-SVG-20010904/DTD/svg10.dtd">
<svg version="1.0" xmlns="http://www.w3.org/2000/svg"
 width="315.000000pt" height="315.000000pt" viewBox="0 0 315.000000 315.000000"
 preserveAspectRatio="xMidYMid meet">

<g transform="translate(0.000000,315.000000) scale(0.100000,-0.100000)"
fill="#000000" stroke="none">
<path d="M1496 3118 c5 -7 21 -33 36 -57 21 -33 28 -58 28 -93 0 -47 1 -48 30
-48 28 0 30 2 30 41 0 31 9 54 40 98 22 31 40 60 40 64 0 4 -14 7 -30 7 -25 0
-35 -7 -52 -36 l-21 -37 -21 37 c-17 30 -27 36 -54 36 -24 0 -31 -3 -26 -12z"/>
<path d="M1313 3108 c-61 -11 -59 -5 -37 -130 13 -69 20 -88 31 -84 8 4 22 6
30 6 12 0 14 8 9 45 -9 55 1 57 43 10 22 -26 39 -35 61 -35 17 0 30 5 30 13 0
16 -47 67 -62 67 -6 0 -2 10 10 23 28 30 28 62 0 81 -25 18 -39 18 -115 4z
m71 -45 c8 -19 0 -28 -30 -37 -17 -5 -22 -2 -26 18 -4 17 0 26 11 29 31 9 39
7 45 -10z"/>
<path d="M1875 3081 c-25 -83 -33 -135 -25 -156 11 -30 44 -52 91 -60 53 -10
84 22 109 109 15 54 17 72 7 78 -27 17 -44 7 -56 -34 -31 -106 -51 -127 -86
-92 -10 10 -13 24 -9 38 4 11 11 35 15 51 4 17 11 40 14 51 6 18 2 22 -24 26
-22 3 -32 0 -36 -11z"/>
<path d="M1066 3040 c-26 -11 -50 -21 -52 -23 -3 -3 10 -47 28 -99 l32 -95 28
9 c20 7 27 15 24 27 -24 80 -18 88 35 41 37 -32 50 -36 80 -19 19 10 18 11
-12 40 -17 16 -37 29 -45 29 -10 0 -8 6 6 20 24 24 25 38 4 68 -19 27 -59 28
-128 2z m78 -38 c7 -11 -6 -27 -28 -36 -20 -7 -36 7 -36 32 0 13 56 17 64 4z"/>
<path d="M2125 2976 c-10 -22 -29 -65 -42 -93 l-23 -53 21 -10 c25 -14 40 -3
59 44 7 19 17 33 21 30 4 -2 11 -29 14 -60 6 -47 11 -57 37 -70 l29 -15 20 48
c11 26 30 68 41 92 19 43 19 45 2 58 -27 20 -32 17 -58 -39 l-24 -51 -12 71
c-12 63 -16 72 -40 81 -25 8 -28 6 -45 -33z"/>
<path d="M865 2952 c-39 -20 -71 -36 -72 -37 -3 -2 86 -176 92 -183 2 -2 35
13 74 34 45 23 71 43 71 54 0 29 -11 30 -62 2 -42 -23 -50 -24 -58 -12 -15 23
-13 25 35 49 39 19 44 25 35 41 -10 18 -12 18 -52 -5 -31 -18 -44 -21 -50 -12
-12 19 -11 21 37 47 48 26 52 32 32 48 -9 8 -31 1 -82 -26z"/>
<path d="M2332 2802 l-53 -86 23 -17 c12 -10 24 -16 26 -15 2 2 27 41 57 87
l53 84 -21 17 c-12 10 -24 17 -27 17 -3 0 -29 -39 -58 -87z"/>
<path d="M694 2846 c-18 -14 -18 -16 -1 -44 22 -38 22 -36 -10 -57 -26 -18
-27 -17 -50 11 l-23 29 -21 -21 -21 -22 59 -80 60 -80 25 16 26 17 -24 35 -25
35 28 22 27 22 23 -27 c13 -15 23 -30 23 -35 0 -4 11 0 26 9 15 10 23 23 19
31 -8 22 -107 153 -114 153 -4 0 -16 -6 -27 -14z"/>
<path d="M1425 2840 c-153 -21 -278 -61 -417 -132 -64 -33 -125 -67 -135 -77
-10 -9 -36 -29 -58 -45 -191 -141 -352 -375 -433 -627 -31 -96 -62 -289 -62
-385 0 -108 32 -288 70 -399 59 -169 61 -175 119 -265 143 -224 317 -383 528
-482 234 -109 483 -148 711 -112 205 32 410 116 557 226 176 133 307 290 397
480 67 139 104 279 118 436 44 495 -182 948 -605 1213 -92 58 -270 127 -396
154 -87 19 -308 27 -394 15z m328 -56 c576 -92 1002 -575 1021 -1159 2 -66 2
-137 -1 -158 l-5 -38 -317 3 c-557 5 -581 6 -581 27 0 17 -5 18 -42 10 -24 -6
-51 -12 -60 -15 -13 -4 -24 8 -44 48 -14 29 -28 55 -29 56 -2 2 -17 -11 -32
-28 l-29 -33 -22 37 c-12 21 -22 41 -22 47 0 20 -16 7 -43 -36 -16 -25 -32
-45 -35 -45 -4 0 -16 14 -27 30 -11 16 -23 30 -26 30 -4 0 -18 -25 -33 -55
-14 -30 -27 -55 -28 -55 -2 0 -28 7 -58 15 -30 8 -56 15 -57 15 -2 0 -3 -9 -3
-20 0 -20 -7 -20 -449 -20 l-449 0 -6 31 c-22 113 15 387 75 542 36 95 119
244 179 322 29 38 186 192 225 222 49 37 218 133 265 151 229 86 424 109 633
76z m-110 -1354 c30 -65 41 -101 45 -153 11 -150 -78 -240 -179 -180 -36 22
-40 32 -46 128 -6 96 8 145 68 251 51 88 47 89 112 -46z m-159 65 c15 -23 15
-28 1 -55 -17 -33 -24 -36 -48 -17 -15 11 -15 15 3 55 10 23 21 42 23 42 3 0
12 -11 21 -25z m226 -17 c19 -39 19 -42 2 -54 -25 -20 -31 -17 -49 21 -16 33
-15 36 2 55 10 11 20 20 21 20 2 0 13 -19 24 -42z m-315 -56 c61 -30 64 -35
48 -105 -12 -51 -13 -74 -3 -127 6 -35 16 -70 22 -77 16 -20 -6 -16 -28 5 -59
53 -112 174 -122 275 l-5 58 29 -7 c16 -4 43 -13 59 -22z m440 -24 c-17 -121
-86 -256 -147 -289 -16 -9 -16 -5 2 37 23 52 27 158 9 198 -9 20 -9 29 1 41
17 20 66 46 105 56 17 4 32 7 33 8 2 1 1 -22 -3 -51z m-545 -20 c0 -7 3 -23 6
-35 l6 -23 -450 0 c-486 0 -462 -3 -462 51 0 18 13 19 450 19 353 0 450 -3
450 -12z m1470 -7 c0 -54 24 -51 -461 -51 l-449 0 0 28 c0 16 3 32 7 35 3 4
208 7 455 7 435 0 448 -1 448 -19z m-1440 -111 c0 -6 -28 -10 -65 -10 -76 0
-140 -22 -131 -45 5 -13 -37 -15 -344 -15 l-349 0 -6 23 c-18 63 -63 57 439
57 297 0 456 -3 456 -10z m1415 -12 c-3 -13 -9 -33 -12 -45 l-5 -23 -350 0
c-339 0 -349 1 -343 19 9 29 -65 54 -144 49 -44 -2 -61 0 -61 10 0 9 99 12
461 12 l461 0 -7 -22z m-1418 -24 c12 -3 27 -19 33 -35 16 -38 72 -96 107
-110 l28 -12 -40 -13 c-93 -29 -150 -12 -232 72 -35 35 -63 69 -63 74 0 24
109 39 167 24z m674 -11 c12 -12 -51 -94 -99 -127 -70 -47 -127 -57 -207 -35
l-40 11 36 19 c38 19 94 77 111 115 6 13 22 25 37 28 40 7 152 -1 162 -11z
m-784 -115 l42 -41 -26 -14 c-20 -10 -103 -13 -374 -13 l-348 0 -16 30 c-8 16
-20 41 -25 55 l-10 25 357 0 357 0 43 -42z m1481 27 c5 -5 -17 -65 -31 -82
-12 -16 -787 -19 -787 -4 0 5 15 18 33 30 18 11 44 32 57 47 l25 27 350 -7
c192 -4 351 -9 353 -11z m-1069 -102 c25 -89 1 -194 -46 -201 -16 -2 -30 8
-52 39 -43 58 -49 101 -22 155 20 42 23 44 65 44 43 0 45 -1 55 -37z m-264 0
c28 -3 67 -1 88 5 43 12 43 12 20 -14 -28 -30 -64 -50 -115 -62 -59 -15 -90
-15 -122 -1 -22 10 -23 14 -14 41 11 32 42 50 73 42 11 -2 43 -7 70 -11z m356
-3 c31 -9 54 -9 87 0 41 10 46 9 78 -15 35 -26 52 -64 39 -86 -12 -19 -127 -4
-184 25 -46 24 -91 67 -91 88 0 6 6 8 14 5 8 -3 34 -11 57 -17z m-531 -50 c0
-54 134 -66 228 -19 l50 25 7 -42 c7 -49 54 -120 92 -137 23 -10 28 -9 54 23
16 19 34 57 40 86 l12 53 26 -18 c42 -29 120 -51 183 -51 53 0 58 2 64 25 3
14 4 34 1 45 -5 20 1 20 339 20 207 0 344 -4 344 -9 0 -13 -86 -139 -118 -173
l-26 -28 -901 0 -902 0 -20 23 c-34 36 -123 169 -123 184 0 10 62 13 325 13
317 0 325 0 325 -20z m1200 -301 c-160 -144 -361 -248 -555 -288 -96 -19 -125
-22 -258 -22 -83 0 -165 6 -213 16 -217 44 -419 144 -579 289 l-50 45 850 0
850 0 -45 -40z"/>
<path d="M1475 2595 l7 -85 -70 72 c-39 40 -74 70 -77 66 -4 -3 16 -52 44
-107 27 -56 48 -101 47 -101 -4 0 -73 37 -141 75 -27 16 -65 37 -84 47 -74 42
-47 7 68 -87 l122 -99 -43 -12 c-24 -6 -77 -19 -118 -28 -41 -10 -111 -26
-155 -36 -44 -10 -106 -24 -137 -30 -32 -6 -58 -15 -58 -19 0 -7 163 -6 373 3
42 1 77 0 77 -3 -1 -3 -35 -26 -78 -50 -42 -25 -122 -72 -177 -106 -55 -34
-148 -90 -207 -125 -111 -65 -141 -93 -65 -61 79 34 142 62 182 81 108 52 378
170 382 167 2 -2 -89 -94 -201 -205 -194 -190 -254 -261 -143 -169 28 23 56
45 62 49 5 4 28 22 50 41 22 18 85 69 140 113 55 43 109 87 120 97 11 10 28
23 38 28 17 10 17 9 4 -18 -21 -40 -87 -184 -87 -189 0 -2 -13 -32 -30 -66
-55 -113 -34 -103 51 25 91 136 151 218 156 214 2 -2 10 -62 19 -133 21 -178
25 -179 57 -11 13 64 25 118 28 121 4 5 53 -71 159 -249 63 -106 59 -100 65
-93 4 3 -3 30 -13 59 -23 64 -97 265 -107 294 -4 11 87 -74 204 -190 206 -205
267 -251 155 -117 -31 37 -74 87 -94 112 -21 25 -77 92 -124 148 -47 57 -86
105 -86 107 0 2 30 -13 68 -34 98 -55 176 -98 272 -148 47 -25 90 -49 95 -53
26 -20 128 -70 133 -65 3 3 -3 12 -14 19 -10 8 -36 27 -56 42 -20 16 -53 40
-73 54 -19 14 -60 43 -89 65 -29 22 -88 65 -131 95 -42 30 -82 60 -88 65 -7 6
-33 26 -59 45 -27 18 -48 35 -48 38 0 2 15 1 33 -2 17 -4 70 -14 117 -21 135
-22 323 -55 343 -61 9 -3 17 -1 17 5 0 10 -42 25 -230 82 -58 17 -132 40 -164
50 -33 11 -64 19 -71 19 -6 0 -20 6 -30 14 -18 13 -14 17 51 59 176 117 208
140 198 144 -7 2 -71 -21 -144 -52 -72 -31 -134 -55 -136 -52 -2 2 28 43 67
91 38 49 68 91 65 94 -6 5 -46 -22 -136 -93 -30 -24 -56 -42 -58 -40 -1 1 11
37 28 80 16 43 27 81 25 84 -6 5 -5 6 -73 -76 -56 -69 -53 -71 -72 40 -7 37
-16 67 -20 67 -4 0 -11 -21 -14 -47 -13 -89 -18 -113 -25 -109 -4 3 -24 39
-45 80 -21 42 -43 76 -48 76 -6 0 -7 -33 -3 -85z m74 -72 c20 -49 35 -40 51
30 l13 62 8 -45 c4 -25 12 -58 16 -73 l8 -28 38 52 c38 50 60 60 40 16 -23
-48 -34 -80 -29 -84 6 -7 45 16 91 52 68 55 70 51 12 -22 -31 -39 -57 -73 -57
-77 0 -12 30 -6 82 18 104 46 148 65 148 61 0 -2 -50 -36 -110 -77 l-111 -73
83 -26 c46 -15 128 -40 183 -57 138 -42 108 -42 -135 2 -99 18 -120 19 -120 7
0 -8 76 -66 230 -176 155 -112 219 -160 216 -163 -3 -2 -15 3 -28 11 -22 14
-57 33 -208 115 -36 19 -95 52 -132 73 -116 68 -116 56 3 -87 110 -132 127
-153 148 -179 8 -11 -49 43 -127 120 -78 77 -147 142 -153 144 -7 2 -9 -5 -4
-20 7 -24 68 -193 86 -238 17 -42 1 -34 -22 11 -12 23 -34 61 -49 83 -15 22
-39 64 -55 93 -42 78 -42 77 -71 -78 -20 -107 -25 -102 -43 47 -6 47 -13 88
-15 90 -9 10 -25 -9 -91 -107 -37 -55 -71 -103 -76 -105 -8 -6 64 160 108 247
2 4 -1 9 -6 12 -7 5 -58 -32 -166 -122 -11 -10 -56 -46 -100 -81 -69 -55 -59
-43 73 86 83 82 152 153 152 156 0 12 -18 7 -82 -22 -35 -15 -97 -43 -138 -61
-41 -18 -117 -52 -169 -77 -51 -24 -95 -42 -96 -41 -3 3 309 191 403 244 17
10 32 22 32 27 0 5 -85 7 -189 5 -104 -1 -188 -2 -187 -1 1 2 25 7 52 13 27 5
87 19 134 30 47 11 118 27 159 35 41 8 76 16 78 18 2 2 -35 34 -82 72 -47 37
-85 69 -85 72 0 2 3 2 8 0 119 -69 175 -97 180 -92 3 3 -11 40 -31 82 -21 41
-36 77 -33 80 2 3 26 -18 52 -46 27 -28 52 -51 58 -51 5 0 6 31 3 78 l-7 77
23 -40 c12 -22 29 -55 36 -72z m598 -309 c-3 -3 -12 -4 -19 -1 -8 3 -5 6 6 6
11 1 17 -2 13 -5z"/>
<path d="M1231 677 c2 -1 15 -11 29 -22 l25 -20 -19 23 c-11 12 -24 22 -29 22
-6 0 -8 -1 -6 -3z"/>
<path d="M1671 677 c2 -1 13 -9 24 -17 19 -14 19 -14 6 3 -7 9 -18 17 -24 17
-6 0 -8 -1 -6 -3z"/>
<path d="M1831 658 c0 -16 2 -18 6 -8 3 8 11 18 17 22 7 5 4 8 -6 8 -12 0 -18
-7 -17 -22z"/>
<path d="M1760 649 c0 -15 -6 -20 -22 -19 -55 5 -178 -1 -178 -7 0 -5 27 -7
60 -6 55 2 60 0 60 -19 0 -11 -8 -27 -17 -34 -16 -12 -16 -13 -1 -14 9 0 19
-6 21 -12 3 -7 6 8 6 35 1 26 6 47 11 47 6 0 10 -18 10 -39 0 -22 5 -43 10
-46 6 -4 10 12 10 40 0 61 23 56 31 -6 l6 -44 1 48 c2 47 2 47 37 47 19 0 35
-4 35 -10 0 -5 -11 -10 -25 -10 -19 0 -25 -5 -25 -22 0 -21 0 -21 14 -2 16 21
31 13 39 -21 3 -11 5 -1 6 23 1 36 4 42 22 42 17 0 20 -4 15 -24 -3 -14 -2
-28 4 -31 6 -4 10 7 10 25 0 48 24 32 31 -21 l6 -44 1 48 c2 34 6 47 15 44 6
-2 12 -12 12 -23 1 -29 13 -43 34 -37 13 3 21 -1 24 -14 3 -10 5 3 6 29 l1 47
36 -1 c32 -1 35 -4 32 -27 -2 -18 -9 -26 -20 -25 -25 2 -22 -2 11 -19 l29 -15
4 49 3 49 -178 0 c-139 0 -178 3 -174 13 2 6 13 12 25 11 12 0 19 3 16 8 -3 4
-16 8 -30 8 -18 0 -24 -5 -24 -21z m260 -49 c0 -11 -7 -20 -15 -20 -27 0 -18
30 13 39 1 1 2 -8 2 -19z"/>
<path d="M1008 623 c36 -5 43 -20 10 -25 -12 -2 -23 -10 -26 -18 -4 -12 -2
-13 9 -2 21 20 37 14 42 -15 3 -23 4 -21 6 10 0 20 6 37 11 37 6 0 13 0 18 0
4 0 7 -13 7 -28 0 -23 4 -27 27 -24 19 2 28 -2 31 -15 3 -10 5 3 6 30 1 34 5
47 15 47 21 0 31 -21 15 -31 -11 -7 -9 -13 9 -31 17 -17 21 -19 16 -5 -4 13
-1 17 14 17 13 0 22 -8 25 -22 2 -13 5 -2 6 25 1 34 5 47 16 47 11 0 15 -13
17 -47 l1 -48 4 43 c2 23 9 42 14 42 6 0 7 5 4 10 -4 6 -69 9 -168 8 -89 0
-147 -3 -129 -5z m132 -29 c0 -8 -9 -14 -20 -14 -13 0 -20 7 -20 19 0 14 5 18
20 14 11 -3 20 -12 20 -19z m100 6 c0 -23 -25 -27 -33 -6 -7 16 1 26 20 26 7
0 13 -9 13 -20z"/>
<path d="M1367 622 c6 -4 13 -21 15 -37 2 -25 7 -29 26 -27 13 2 23 -2 23 -10
1 -7 5 5 8 26 9 56 31 59 33 4 l1 -43 4 40 c3 22 10 43 16 47 7 4 -22 8 -63 8
-41 0 -70 -4 -63 -8z m63 -22 c0 -11 -7 -20 -15 -20 -27 0 -18 30 13 39 1 1 2
-8 2 -19z"/>
<path d="M1620 599 c-32 -6 -35 -9 -12 -13 4 -1 12 -4 17 -8 13 -8 39 6 34 18
-2 5 -20 6 -39 3z"/>
<path d="M2155 600 c3 -5 8 -10 11 -10 2 0 4 5 4 10 0 6 -5 10 -11 10 -5 0 -7
-4 -4 -10z"/>
<path d="M2055 590 c-3 -5 1 -10 9 -10 8 0 18 5 21 10 3 6 -1 10 -9 10 -8 0
-18 -4 -21 -10z"/>
<path d="M1576 558 c3 -4 12 -8 20 -8 8 0 14 4 14 8 0 4 -9 8 -19 8 -11 0 -17
-4 -15 -8z"/>
<path d="M2466 2747 c-15 -39 -31 -80 -37 -89 -14 -27 -11 -43 14 -66 l22 -21
98 53 97 52 -23 22 -23 21 -29 -20 c-17 -11 -47 -29 -68 -40 l-38 -20 16 36
c8 19 21 50 29 68 15 34 13 43 -15 64 -14 11 -19 4 -43 -60z"/>
<path d="M482 2659 c-31 -12 -64 -66 -64 -107 0 -47 55 -102 103 -102 61 0
108 44 109 101 0 44 -6 51 -35 37 -19 -9 -23 -16 -18 -38 4 -22 0 -31 -17 -40
-19 -10 -27 -9 -48 7 -38 28 -49 50 -36 71 6 9 20 18 32 20 11 2 27 14 36 27
14 22 14 23 -13 27 -16 2 -38 1 -49 -3z"/>
<path d="M2647 2596 c-25 -23 -60 -54 -78 -69 l-33 -27 21 -22 c95 -108 95
-107 113 -96 17 11 16 15 -16 52 -38 45 -40 49 -20 65 11 9 20 4 45 -25 26
-29 35 -33 46 -24 13 10 10 17 -14 47 -27 32 -32 63 -11 63 5 0 23 -18 40 -40
26 -32 35 -38 46 -29 19 15 18 20 -8 49 -13 14 -37 41 -54 61 l-31 36 -46 -41z"/>
<path d="M321 2466 l-22 -23 85 -61 86 -62 16 26 c10 14 13 28 8 33 -5 4 -41
31 -80 59 l-72 51 -21 -23z"/>
<path d="M2770 2389 c-41 -27 -79 -50 -84 -52 -7 -2 6 -40 20 -56 1 -2 17 7
34 19 47 33 60 13 27 -43 -25 -43 -25 -44 -8 -71 l18 -28 22 35 c11 19 21 42
21 51 0 14 4 15 21 6 27 -15 61 -6 77 21 12 18 10 28 -13 72 -14 29 -34 62
-43 73 l-17 22 -75 -49z m100 -70 c0 -25 -32 -25 -47 1 -11 16 -10 21 5 29 21
12 42 -3 42 -30z"/>
<path d="M241 2331 c-25 -25 -64 -113 -54 -122 10 -9 132 -73 155 -82 14 -5
24 5 43 43 27 53 32 105 12 131 -35 46 -123 63 -156 30z m82 -52 c36 -19 45
-41 28 -68 -8 -13 -17 -11 -55 9 -47 24 -55 37 -34 58 15 15 33 15 61 1z"/>
<path d="M2907 2182 c-12 -13 -17 -37 -17 -75 0 -63 -9 -75 -34 -48 -14 16
-15 23 -6 41 13 25 4 60 -16 60 -26 0 -39 -45 -25 -90 22 -74 79 -102 122 -59
19 19 21 29 15 75 -6 56 3 74 25 48 9 -11 10 -20 3 -32 -8 -12 -7 -25 1 -45
11 -27 12 -27 28 -9 28 31 18 91 -23 132 -25 25 -52 26 -73 2z"/>
<path d="M136 2117 c-9 -33 -9 -33 37 -47 64 -20 63 -25 -7 -44 -54 -15 -66
-22 -74 -45 l-10 -28 95 -32 c77 -27 97 -30 104 -19 17 26 3 43 -46 60 -28 9
-43 18 -35 21 8 2 31 9 51 16 19 6 42 11 51 11 13 0 38 38 38 60 0 4 -14 12
-32 15 -18 4 -50 15 -73 25 -74 31 -92 33 -99 7z"/>
<path d="M2965 1956 c-27 -8 -62 -16 -77 -20 -21 -5 -28 -12 -28 -31 0 -13 4
-26 9 -30 8 -4 187 32 199 41 2 1 0 13 -4 28 -7 30 -22 32 -99 12z"/>
<path d="M112 1853 c-33 -7 -55 -48 -56 -103 -1 -58 20 -85 76 -101 107 -28
182 110 99 185 -18 16 -82 27 -119 19z m95 -74 c21 -18 15 -47 -13 -65 -23
-16 -28 -16 -60 -1 -61 29 -37 94 30 82 16 -3 35 -10 43 -16z"/>
<path d="M3039 1853 c-1 -5 0 -20 1 -34 1 -25 -2 -27 -74 -39 -75 -13 -76 -13
-76 -42 l0 -30 63 7 c34 3 70 9 79 11 13 4 18 -3 24 -30 3 -20 11 -36 18 -36
29 1 32 15 23 108 -9 87 -11 92 -33 92 -13 0 -24 -3 -25 -7z"/>
<path d="M3098 1623 c-1 -5 -29 -25 -61 -46 -50 -33 -62 -36 -97 -31 l-40 7 0
-34 c0 -33 1 -34 43 -35 33 -1 58 -11 98 -38 l54 -36 3 32 c2 18 -1 34 -7 36
-6 2 -20 11 -32 21 l-22 17 37 22 c31 18 36 27 36 57 0 33 -4 44 -12 28z"/>
<path d="M68 1583 c-24 -27 -30 -60 -23 -114 l7 -49 99 0 99 0 0 35 c0 33 -2
35 -35 35 -30 0 -35 3 -35 23 0 12 -9 37 -20 55 -23 37 -66 44 -92 15z m62
-64 c13 -24 13 -24 -17 -33 -20 -6 -23 -4 -23 17 0 41 22 50 40 16z"/>
<path d="M181 1226 c-26 -31 14 -71 45 -45 21 17 14 53 -12 57 -11 2 -26 -4
-33 -12z"/>
<path d="M2893 1164 c-8 -22 9 -48 35 -52 16 -2 23 3 28 22 3 14 3 30 -1 35
-10 17 -55 13 -62 -5z"/>
<path d="M192 1038 c-7 -7 -12 -21 -13 -32 0 -12 -3 -15 -6 -8 -8 20 -32 14
-38 -11 -8 -31 9 -73 37 -88 13 -7 28 -19 34 -27 7 -10 13 -11 18 -4 3 6 2 13
-4 17 -5 3 -10 13 -10 22 0 15 2 14 18 0 10 -10 27 -17 37 -17 17 0 17 -1 2
-18 -35 -39 -7 -84 39 -64 20 10 23 17 18 37 -6 26 1 30 30 19 30 -11 18 -42
-24 -60 -37 -17 -49 -32 -34 -47 3 -3 24 5 46 19 23 15 47 23 56 19 12 -4 5
-12 -28 -31 -56 -32 -54 -30 -46 -50 6 -15 9 -14 32 7 16 15 37 23 58 23 l34
0 -22 31 c-11 16 -24 32 -28 33 -5 2 -8 9 -8 16 0 25 -41 66 -66 66 -24 0 -24
1 -10 22 22 32 20 58 -9 101 -22 32 -31 37 -63 37 -21 0 -43 -5 -50 -12z m103
-34 c28 -30 30 -42 12 -65 -16 -22 -49 -31 -67 -19 -12 8 -11 11 8 16 26 8 28
19 5 33 -12 7 -13 10 -4 11 9 0 11 8 7 25 -8 33 8 32 39 -1z m-57 4 c-3 -7
-15 -16 -29 -19 l-24 -7 23 -7 c20 -7 21 -9 8 -24 -7 -9 -16 -24 -17 -34 -4
-16 -6 -16 -26 -2 -31 22 -29 38 8 74 30 31 64 42 57 19z m59 -175 c-9 -9 -19
-14 -23 -11 -10 10 6 28 24 28 15 0 15 -1 -1 -17z"/>
<path d="M2800 984 c-11 -26 -20 -48 -20 -50 0 -5 130 -64 140 -64 4 0 10 8
13 18 3 9 12 34 21 55 14 31 14 37 2 37 -8 0 -19 -14 -25 -30 -11 -33 -36 -49
-52 -33 -6 6 -4 23 6 47 12 29 13 37 3 34 -7 -3 -19 -17 -26 -31 -8 -16 -21
-27 -33 -27 -22 0 -23 6 -4 40 17 29 19 50 5 50 -5 0 -18 -21 -30 -46z"/>
<path d="M2739 866 c-18 -24 -30 -48 -29 -53 2 -4 30 -25 64 -45 42 -26 64
-34 71 -27 7 7 1 17 -18 31 -36 26 -21 48 33 48 26 0 40 5 44 16 5 14 0 16
-38 12 -34 -4 -43 -2 -39 8 5 13 -30 54 -47 54 -6 0 -24 -20 -41 -44z m64 -2
c3 -4 -1 -20 -9 -35 -12 -25 -18 -28 -35 -19 -19 11 -18 19 4 48 10 13 30 16
40 6z"/>
<path d="M437 793 c-14 -13 -6 -23 16 -20 43 4 22 -28 -38 -58 -34 -17 -61
-38 -63 -47 -2 -10 1 -18 7 -18 6 0 11 4 11 9 0 5 15 15 34 21 49 16 86 48 86
74 0 34 -34 59 -53 39z"/>
<path d="M2662 751 c-18 -22 -32 -42 -32 -45 0 -3 26 -25 59 -50 l58 -45 21
24 c33 38 53 71 45 78 -3 4 -20 -9 -37 -29 -27 -31 -33 -34 -49 -22 -18 13
-17 15 2 40 12 14 21 31 21 37 0 17 -26 2 -40 -24 -10 -20 -17 -22 -32 -14
-17 9 -17 11 7 43 14 18 25 36 25 39 0 17 -19 4 -48 -32z"/>
<path d="M2615 760 c-3 -5 3 -10 14 -10 12 0 21 5 21 10 0 6 -6 10 -14 10 -8
0 -18 -4 -21 -10z"/>
<path d="M2596 671 c-3 -5 9 -22 27 -37 85 -73 85 -73 96 -61 7 9 -6 25 -49
60 -64 50 -66 52 -74 38z"/>
<path d="M2560 625 c-10 -12 -7 -23 13 -60 14 -25 23 -45 21 -45 -3 0 -25 11
-48 25 -35 21 -45 23 -60 12 -15 -11 -12 -18 34 -69 34 -38 56 -55 66 -51 12
4 8 14 -20 42 -49 50 -45 56 11 21 63 -40 73 -26 34 47 l-32 58 45 -44 c65
-64 78 -42 14 25 -29 29 -56 54 -59 54 -4 0 -12 -7 -19 -15z"/>
<path d="M531 564 c-38 -31 -39 -53 -5 -93 34 -40 62 -39 103 4 28 30 30 36
15 42 -12 4 -25 -3 -43 -25 -30 -37 -56 -41 -71 -12 -13 25 1 56 30 65 21 7
27 30 11 39 -5 4 -23 -6 -40 -20z"/>
<path d="M2442 517 c-8 -9 -2 -23 24 -52 36 -43 42 -66 20 -84 -13 -11 -46 -6
-46 8 0 3 -16 23 -34 44 -22 25 -36 35 -41 28 -7 -12 34 -74 63 -98 23 -19 59
-16 82 7 20 20 27 65 12 72 -4 2 -21 22 -38 46 -24 33 -34 39 -42 29z"/>
<path d="M621 435 c-13 -24 -26 -44 -30 -43 -20 2 -31 -4 -31 -18 0 -11 6 -14
20 -9 12 4 31 0 45 -9 34 -23 37 -21 68 30 21 35 31 43 41 35 7 -6 15 -8 19
-5 6 6 -56 64 -69 64 -4 0 -3 -5 2 -10 7 -7 4 -25 -10 -55 -22 -47 -35 -58
-55 -45 -10 5 -8 18 9 51 13 24 28 47 34 51 7 5 6 8 -4 8 -8 0 -26 -20 -39
-45z"/>
<path d="M2260 389 c-10 -6 -11 -12 -5 -16 6 -5 26 -32 44 -60 18 -29 36 -53
39 -53 17 0 92 53 86 61 -3 6 -19 1 -39 -11 l-33 -21 -25 33 c-13 18 -30 43
-38 55 -11 16 -19 19 -29 12z"/>
<path d="M745 365 c-28 -27 -31 -45 -13 -63 30 -30 82 3 60 38 -12 20 -7 30
18 30 33 0 42 -25 19 -54 -11 -14 -27 -26 -35 -26 -20 0 -17 -9 9 -31 37 -31
64 -24 87 22 19 40 19 59 0 59 -4 0 -15 -18 -23 -39 -19 -45 -36 -60 -48 -40
-6 10 -1 18 16 27 34 17 34 64 0 86 -34 23 -62 20 -90 -9z m35 -34 c0 -11 -29
-35 -35 -29 -10 9 7 38 21 38 8 0 14 -4 14 -9z"/>
<path d="M2146 318 c-18 -26 -23 -168 -6 -168 6 0 10 11 10 24 0 17 9 27 32
37 24 10 33 10 36 1 4 -13 32 -17 32 -5 0 8 -81 133 -86 133 -1 0 -10 -10 -18
-22z m31 -85 c-28 -14 -29 -13 -21 27 l7 33 18 -24 c17 -23 17 -24 -4 -36z"/>
<path d="M1988 265 c-4 -4 11 -146 16 -152 2 -2 26 4 54 12 33 10 52 21 52 31
0 11 -5 12 -17 6 -10 -5 -30 -12 -45 -16 -25 -6 -28 -4 -28 21 0 69 -15 115
-32 98z"/>
<path d="M1131 226 c-9 -11 -10 -20 -1 -35 13 -26 46 -27 59 -3 20 38 -31 71
-58 38z"/>
<path d="M1802 214 c-24 -17 -29 -48 -10 -60 7 -4 28 -10 48 -14 21 -3 36 -12
38 -22 4 -20 -35 -35 -51 -19 -6 6 -17 11 -24 11 -11 0 -11 -5 -3 -20 7 -14
21 -20 45 -20 39 0 65 22 65 55 0 28 -26 45 -69 45 -22 0 -31 5 -31 16 0 14 7
15 40 10 41 -6 50 0 28 22 -17 17 -49 15 -76 -4z"/>
<path d="M1354 203 c2 -10 10 -45 17 -78 12 -55 22 -74 41 -75 4 0 21 30 39
68 17 37 34 70 36 75 2 4 -3 7 -12 7 -9 0 -24 -18 -36 -45 -23 -52 -39 -66
-39 -33 0 43 -20 98 -36 98 -10 0 -14 -6 -10 -17z"/>
<path d="M1656 203 c-27 -4 -28 -7 -22 -41 3 -20 6 -54 6 -74 0 -27 4 -38 15
-38 10 0 15 11 15 35 0 44 10 44 52 0 21 -22 38 -32 45 -27 9 6 5 16 -14 36
-23 25 -24 29 -10 38 23 12 21 55 -2 68 -20 10 -32 11 -85 3z m72 -40 c-2 -12
-14 -19 -36 -21 -27 -3 -32 0 -32 17 0 17 6 21 36 21 28 0 35 -3 32 -17z"/>
<path d="M1498 125 l-3 -75 35 0 c19 0 45 -3 58 -6 16 -5 22 -2 22 10 0 12
-10 16 -44 16 -41 0 -43 1 -38 25 4 22 10 25 43 25 22 0 39 5 39 10 0 6 -18
10 -40 10 -33 0 -40 3 -40 20 0 17 7 20 45 20 25 0 45 5 45 10 0 6 -26 10 -59
10 l-59 0 -4 -75z"/>
</g>
</svg>
