<?xml version="1.0" standalone="no"?>
<!DOCTYPE svg PUBLIC "-//W3C//DTD SVG 20010904//EN"
 "http://www.w3.org/TR/2001/REC-SVG-20010904/DTD/svg10.dtd">
<svg version="1.0" xmlns="http://www.w3.org/2000/svg"
 width="200.000000pt" height="200.000000pt" viewBox="0 0 200.000000 200.000000"
 preserveAspectRatio="xMidYMid meet">

<g transform="translate(0.000000,200.000000) scale(0.100000,-0.100000)"
fill="#000000" stroke="none">
<path d="M1292 1514 c-34 -23 -27 -83 11 -104 24 -13 30 -13 55 0 37 21 44 81
10 104 -12 9 -29 16 -38 16 -9 0 -26 -7 -38 -16z"/>
<path d="M833 1479 c-29 -11 -77 -43 -107 -70 -191 -175 -149 -477 82 -591 60
-30 75 -33 157 -33 78 0 98 4 151 28 77 36 145 104 181 182 24 52 28 72 28
150 0 79 -4 97 -29 149 -37 76 -102 140 -174 174 -78 37 -212 42 -289 11z"/>
<path d="M210 555 c0 -60 3 -75 15 -75 8 0 15 9 15 20 0 16 7 20 38 20 26 0
41 -6 50 -20 7 -11 22 -20 34 -20 21 0 21 1 3 20 -14 16 -16 23 -7 32 16 16
15 71 0 86 -7 7 -40 12 -80 12 l-68 0 0 -75z m128 18 c3 -21 0 -23 -47 -23
-48 0 -51 2 -51 26 0 24 2 25 48 22 40 -3 47 -6 50 -25z"/>
<path d="M727 611 c-4 -16 -15 -20 -63 -23 -54 -3 -59 -5 -68 -30 -7 -18 -6
-35 2 -53 11 -23 17 -25 75 -25 36 0 68 5 75 12 18 18 16 138 -2 138 -7 0 -16
-9 -19 -19z m1 -73 c-3 -32 -5 -33 -48 -33 -43 0 -45 1 -48 33 l-3 32 51 0 51
0 -3 -32z"/>
<path d="M1260 615 c0 -9 -7 -18 -15 -21 -19 -8 -20 -24 -1 -24 10 0 16 -14
18 -42 3 -40 5 -43 36 -46 18 -2 32 1 32 7 0 6 -9 11 -20 11 -16 0 -20 7 -20
35 0 29 4 35 21 35 12 0 19 5 16 13 -2 6 -11 11 -19 9 -9 -1 -18 7 -21 18 -6
23 -27 27 -27 5z"/>
<path d="M1380 609 c0 -11 -4 -17 -10 -14 -5 3 -10 -1 -10 -9 0 -9 5 -16 10
-16 6 0 10 -13 10 -29 0 -49 9 -61 46 -61 38 0 47 17 12 22 -18 2 -24 11 -26
36 -3 27 0 32 17 32 13 0 21 7 21 16 0 11 -5 14 -16 10 -11 -4 -18 1 -21 14
-7 26 -33 26 -33 -1z"/>
<path d="M845 590 l-40 -5 -3 -52 c-2 -42 0 -53 12 -53 10 0 16 13 18 43 3 38
6 42 31 45 26 3 27 2 27 -42 0 -34 4 -46 15 -46 11 0 15 12 15 46 0 44 1 45
28 42 24 -3 27 -7 30 -45 2 -29 8 -43 18 -43 17 0 20 95 4 105 -14 9 -104 11
-155 5z"/>
<path d="M1060 592 c-6 -2 -10 -8 -10 -13 0 -5 27 -9 60 -9 33 0 60 -4 60 -10
0 -5 -21 -10 -47 -10 -59 0 -76 -10 -71 -41 3 -22 8 -24 76 -27 l73 -3 -3 53
-3 53 -63 5 c-34 3 -67 4 -72 2z m110 -77 c0 -11 -12 -15 -45 -15 -42 0 -54 7
-38 23 3 4 24 7 45 7 27 0 38 -4 38 -15z"/>
<path d="M1720 592 c-36 -5 -42 -15 -45 -66 -1 -39 1 -46 17 -46 15 0 18 8 18
45 l0 45 40 0 c22 0 40 5 40 10 0 6 -3 10 -7 11 -5 0 -15 2 -23 3 -8 1 -26 0
-40 -2z"/>
<path d="M414 577 c-3 -8 -4 -32 -2 -53 l3 -39 68 -3 c40 -2 67 1 67 7 0 5
-23 11 -52 13 -77 5 -76 28 2 28 61 0 61 0 58 28 -3 26 -5 27 -71 30 -51 2
-69 0 -73 -11z m116 -17 c0 -5 -20 -10 -45 -10 -25 0 -45 5 -45 10 0 6 20 10
45 10 25 0 45 -4 45 -10z"/>
<path d="M1495 580 c-13 -21 -15 -61 -5 -80 9 -17 21 -20 75 -20 37 0 65 4 65
10 0 6 -25 10 -55 10 -42 0 -55 3 -55 15 0 12 13 15 60 15 62 0 69 6 54 44 -5
12 -21 16 -69 16 -35 0 -67 -5 -70 -10z m110 -20 c4 -6 -12 -10 -39 -10 -25 0
-46 5 -46 10 0 6 18 10 39 10 22 0 43 -4 46 -10z"/>
</g>
</svg>
